<?xml version="1.0" encoding="UTF-8"?>
<svg xmlns="http://www.w3.org/2000/svg" width="963" height="103">
   <defs>
      <style type="text/css">
    @namespace "http://www.w3.org/2000/svg";
    .line                 {fill: none; stroke: #242424; stroke-width: 1;}
    .bold-line            {stroke: #0A0A0A; shape-rendering: crispEdges; stroke-width: 2;}
    .thin-line            {stroke: #0F0F0F; shape-rendering: crispEdges}
    .filled               {fill: #242424; stroke: none;}
    text.terminal         {font-family: Verdana, Sans-serif;
                            font-size: 12px;
                            fill: #0A0A0A;
                            font-weight: bold;
                          }
    text.nonterminal      {font-family: Verdana, Sans-serif;
                            font-size: 12px;
                            fill: #0D0D0D;
                            font-weight: normal;
                          }
    text.regexp           {font-family: Verdana, Sans-serif;
                            font-size: 12px;
                            fill: #0F0F0F;
                            font-weight: normal;
                          }
    rect, circle, polygon {fill: #242424; stroke: #242424;}
    rect.terminal         {fill: #F2F2F2; stroke: #242424; stroke-width: 1;}
    rect.nonterminal      {fill: #F8F8F8; stroke: #242424; stroke-width: 1;}
    rect.text             {fill: none; stroke: none;}
    polygon.regexp        {fill: #FBFBFB; stroke: #242424; stroke-width: 1;}
  </style>
   </defs>
   <polygon points="9 17 1 13 1 21"/>
   <polygon points="17 17 9 13 9 21"/>
   <rect x="31" y="3" width="28" height="32" rx="10"/>
   <rect x="29"
          y="1"
          width="28"
          height="32"
          class="terminal"
          rx="10"/>
   <text class="terminal" x="39" y="21">{</text>
   <rect x="79" y="3" width="62" height="32" rx="10"/>
   <rect x="77"
          y="1"
          width="62"
          height="32"
          class="terminal"
          rx="10"/>
   <text class="terminal" x="87" y="21">"kind"</text>
   <rect x="161" y="3" width="24" height="32" rx="10"/>
   <rect x="159"
          y="1"
          width="24"
          height="32"
          class="terminal"
          rx="10"/>
   <text class="terminal" x="169" y="21">:</text>
   <rect x="205" y="3" width="78" height="32" rx="10"/>
   <rect x="203"
          y="1"
          width="78"
          height="32"
          class="terminal"
          rx="10"/>
   <text class="terminal" x="213" y="21">"Binary"</text>
   <rect x="303" y="3" width="24" height="32" rx="10"/>
   <rect x="301"
          y="1"
          width="24"
          height="32"
          class="terminal"
          rx="10"/>
   <text class="terminal" x="311" y="21">,</text>
   <rect x="347" y="3" width="54" height="32" rx="10"/>
   <rect x="345"
          y="1"
          width="54"
          height="32"
          class="terminal"
          rx="10"/>
   <text class="terminal" x="355" y="21">"lhs"</text>
   <rect x="421" y="3" width="24" height="32" rx="10"/>
   <rect x="419"
          y="1"
          width="24"
          height="32"
          class="terminal"
          rx="10"/>
   <text class="terminal" x="429" y="21">:</text>
   <a xmlns:xlink="http://www.w3.org/1999/xlink"
       xlink:href="#term"
       xlink:title="term">
      <rect x="465" y="3" width="50" height="32"/>
      <rect x="463" y="1" width="50" height="32" class="nonterminal"/>
      <text class="nonterminal" x="473" y="21">term</text>
   </a>
   <rect x="535" y="3" width="24" height="32" rx="10"/>
   <rect x="533"
          y="1"
          width="24"
          height="32"
          class="terminal"
          rx="10"/>
   <text class="terminal" x="543" y="21">,</text>
   <rect x="579" y="3" width="50" height="32" rx="10"/>
   <rect x="577"
          y="1"
          width="50"
          height="32"
          class="terminal"
          rx="10"/>
   <text class="terminal" x="587" y="21">"op"</text>
   <rect x="649" y="3" width="24" height="32" rx="10"/>
   <rect x="647"
          y="1"
          width="24"
          height="32"
          class="terminal"
          rx="10"/>
   <text class="terminal" x="657" y="21">:</text>
   <a xmlns:xlink="http://www.w3.org/1999/xlink"
       xlink:href="#binary_op"
       xlink:title="binary_op">
      <rect x="693" y="3" width="84" height="32"/>
      <rect x="691" y="1" width="84" height="32" class="nonterminal"/>
      <text class="nonterminal" x="701" y="21">binary_op</text>
   </a>
   <rect x="797" y="3" width="24" height="32" rx="10"/>
   <rect x="795"
          y="1"
          width="24"
          height="32"
          class="terminal"
          rx="10"/>
   <text class="terminal" x="805" y="21">,</text>
   <rect x="841" y="3" width="56" height="32" rx="10"/>
   <rect x="839"
          y="1"
          width="56"
          height="32"
          class="terminal"
          rx="10"/>
   <text class="terminal" x="849" y="21">"rhs"</text>
   <rect x="917" y="3" width="24" height="32" rx="10"/>
   <rect x="915"
          y="1"
          width="24"
          height="32"
          class="terminal"
          rx="10"/>
   <text class="terminal" x="925" y="21">:</text>
   <a xmlns:xlink="http://www.w3.org/1999/xlink"
       xlink:href="#term"
       xlink:title="term">
      <rect x="551" y="69" width="50" height="32"/>
      <rect x="549" y="67" width="50" height="32" class="nonterminal"/>
      <text class="nonterminal" x="559" y="87">term</text>
   </a>
   <rect x="621" y="69" width="24" height="32" rx="10"/>
   <rect x="619"
          y="67"
          width="24"
          height="32"
          class="terminal"
          rx="10"/>
   <text class="terminal" x="629" y="87">,</text>
   <rect x="665" y="69" width="88" height="32" rx="10"/>
   <rect x="663"
          y="67"
          width="88"
          height="32"
          class="terminal"
          rx="10"/>
   <text class="terminal" x="673" y="87">"location"</text>
   <rect x="773" y="69" width="24" height="32" rx="10"/>
   <rect x="771"
          y="67"
          width="24"
          height="32"
          class="terminal"
          rx="10"/>
   <text class="terminal" x="781" y="87">:</text>
   <a xmlns:xlink="http://www.w3.org/1999/xlink"
       xlink:href="#location"
       xlink:title="location">
      <rect x="817" y="69" width="70" height="32"/>
      <rect x="815" y="67" width="70" height="32" class="nonterminal"/>
      <text class="nonterminal" x="825" y="87">location</text>
   </a>
   <rect x="907" y="69" width="28" height="32" rx="10"/>
   <rect x="905"
          y="67"
          width="28"
          height="32"
          class="terminal"
          rx="10"/>
   <text class="terminal" x="915" y="87">}</text>
   <path class="line"
          d="m17 17 h2 m0 0 h10 m28 0 h10 m0 0 h10 m62 0 h10 m0 0 h10 m24 0 h10 m0 0 h10 m78 0 h10 m0 0 h10 m24 0 h10 m0 0 h10 m54 0 h10 m0 0 h10 m24 0 h10 m0 0 h10 m50 0 h10 m0 0 h10 m24 0 h10 m0 0 h10 m50 0 h10 m0 0 h10 m24 0 h10 m0 0 h10 m84 0 h10 m0 0 h10 m24 0 h10 m0 0 h10 m56 0 h10 m0 0 h10 m24 0 h10 m2 0 l2 0 m2 0 l2 0 m2 0 l2 0 m-434 66 l2 0 m2 0 l2 0 m2 0 l2 0 m2 0 h10 m50 0 h10 m0 0 h10 m24 0 h10 m0 0 h10 m88 0 h10 m0 0 h10 m24 0 h10 m0 0 h10 m70 0 h10 m0 0 h10 m28 0 h10 m3 0 h-3"/>
   <polygon points="953 83 961 79 961 87"/>
   <polygon points="953 83 945 79 945 87"/>
</svg>
