<?xml version="1.0" encoding="UTF-8"?>
<svg xmlns="http://www.w3.org/2000/svg" width="163" height="565">
   <defs>
      <style type="text/css">
    @namespace "http://www.w3.org/2000/svg";
    .line                 {fill: none; stroke: #242424; stroke-width: 1;}
    .bold-line            {stroke: #0A0A0A; shape-rendering: crispEdges; stroke-width: 2;}
    .thin-line            {stroke: #0F0F0F; shape-rendering: crispEdges}
    .filled               {fill: #242424; stroke: none;}
    text.terminal         {font-family: Verdana, Sans-serif;
                            font-size: 12px;
                            fill: #0A0A0A;
                            font-weight: bold;
                          }
    text.nonterminal      {font-family: Verdana, Sans-serif;
                            font-size: 12px;
                            fill: #0D0D0D;
                            font-weight: normal;
                          }
    text.regexp           {font-family: Verdana, Sans-serif;
                            font-size: 12px;
                            fill: #0F0F0F;
                            font-weight: normal;
                          }
    rect, circle, polygon {fill: #242424; stroke: #242424;}
    rect.terminal         {fill: #F2F2F2; stroke: #242424; stroke-width: 1;}
    rect.nonterminal      {fill: #F8F8F8; stroke: #242424; stroke-width: 1;}
    rect.text             {fill: none; stroke: none;}
    polygon.regexp        {fill: #FBFBFB; stroke: #242424; stroke-width: 1;}
  </style>
   </defs>
   <polygon points="9 17 1 13 1 21"/>
   <polygon points="17 17 9 13 9 21"/>
   <rect x="51" y="3" width="60" height="32" rx="10"/>
   <rect x="49"
          y="1"
          width="60"
          height="32"
          class="terminal"
          rx="10"/>
   <text class="terminal" x="59" y="21">"Add"</text>
   <rect x="51" y="47" width="60" height="32" rx="10"/>
   <rect x="49"
          y="45"
          width="60"
          height="32"
          class="terminal"
          rx="10"/>
   <text class="terminal" x="59" y="65">"Sub"</text>
   <rect x="51" y="91" width="58" height="32" rx="10"/>
   <rect x="49"
          y="89"
          width="58"
          height="32"
          class="terminal"
          rx="10"/>
   <text class="terminal" x="59" y="109">"Mul"</text>
   <rect x="51" y="135" width="56" height="32" rx="10"/>
   <rect x="49"
          y="133"
          width="56"
          height="32"
          class="terminal"
          rx="10"/>
   <text class="terminal" x="59" y="153">"Div"</text>
   <rect x="51" y="179" width="64" height="32" rx="10"/>
   <rect x="49"
          y="177"
          width="64"
          height="32"
          class="terminal"
          rx="10"/>
   <text class="terminal" x="59" y="197">"Rem"</text>
   <rect x="51" y="223" width="50" height="32" rx="10"/>
   <rect x="49"
          y="221"
          width="50"
          height="32"
          class="terminal"
          rx="10"/>
   <text class="terminal" x="59" y="241">"Eq"</text>
   <rect x="51" y="267" width="60" height="32" rx="10"/>
   <rect x="49"
          y="265"
          width="60"
          height="32"
          class="terminal"
          rx="10"/>
   <text class="terminal" x="59" y="285">"Neq"</text>
   <rect x="51" y="311" width="46" height="32" rx="10"/>
   <rect x="49"
          y="309"
          width="46"
          height="32"
          class="terminal"
          rx="10"/>
   <text class="terminal" x="59" y="329">"Lt"</text>
   <rect x="51" y="355" width="48" height="32" rx="10"/>
   <rect x="49"
          y="353"
          width="48"
          height="32"
          class="terminal"
          rx="10"/>
   <text class="terminal" x="59" y="373">"Gt"</text>
   <rect x="51" y="399" width="54" height="32" rx="10"/>
   <rect x="49"
          y="397"
          width="54"
          height="32"
          class="terminal"
          rx="10"/>
   <text class="terminal" x="59" y="417">"Lte"</text>
   <rect x="51" y="443" width="56" height="32" rx="10"/>
   <rect x="49"
          y="441"
          width="56"
          height="32"
          class="terminal"
          rx="10"/>
   <text class="terminal" x="59" y="461">"Gte"</text>
   <rect x="51" y="487" width="60" height="32" rx="10"/>
   <rect x="49"
          y="485"
          width="60"
          height="32"
          class="terminal"
          rx="10"/>
   <text class="terminal" x="59" y="505">"And"</text>
   <rect x="51" y="531" width="50" height="32" rx="10"/>
   <rect x="49"
          y="529"
          width="50"
          height="32"
          class="terminal"
          rx="10"/>
   <text class="terminal" x="59" y="549">"Or"</text>
   <path class="line"
          d="m17 17 h2 m20 0 h10 m60 0 h10 m0 0 h4 m-104 0 h20 m84 0 h20 m-124 0 q10 0 10 10 m104 0 q0 -10 10 -10 m-114 10 v24 m104 0 v-24 m-104 24 q0 10 10 10 m84 0 q10 0 10 -10 m-94 10 h10 m60 0 h10 m0 0 h4 m-94 -10 v20 m104 0 v-20 m-104 20 v24 m104 0 v-24 m-104 24 q0 10 10 10 m84 0 q10 0 10 -10 m-94 10 h10 m58 0 h10 m0 0 h6 m-94 -10 v20 m104 0 v-20 m-104 20 v24 m104 0 v-24 m-104 24 q0 10 10 10 m84 0 q10 0 10 -10 m-94 10 h10 m56 0 h10 m0 0 h8 m-94 -10 v20 m104 0 v-20 m-104 20 v24 m104 0 v-24 m-104 24 q0 10 10 10 m84 0 q10 0 10 -10 m-94 10 h10 m64 0 h10 m-94 -10 v20 m104 0 v-20 m-104 20 v24 m104 0 v-24 m-104 24 q0 10 10 10 m84 0 q10 0 10 -10 m-94 10 h10 m50 0 h10 m0 0 h14 m-94 -10 v20 m104 0 v-20 m-104 20 v24 m104 0 v-24 m-104 24 q0 10 10 10 m84 0 q10 0 10 -10 m-94 10 h10 m60 0 h10 m0 0 h4 m-94 -10 v20 m104 0 v-20 m-104 20 v24 m104 0 v-24 m-104 24 q0 10 10 10 m84 0 q10 0 10 -10 m-94 10 h10 m46 0 h10 m0 0 h18 m-94 -10 v20 m104 0 v-20 m-104 20 v24 m104 0 v-24 m-104 24 q0 10 10 10 m84 0 q10 0 10 -10 m-94 10 h10 m48 0 h10 m0 0 h16 m-94 -10 v20 m104 0 v-20 m-104 20 v24 m104 0 v-24 m-104 24 q0 10 10 10 m84 0 q10 0 10 -10 m-94 10 h10 m54 0 h10 m0 0 h10 m-94 -10 v20 m104 0 v-20 m-104 20 v24 m104 0 v-24 m-104 24 q0 10 10 10 m84 0 q10 0 10 -10 m-94 10 h10 m56 0 h10 m0 0 h8 m-94 -10 v20 m104 0 v-20 m-104 20 v24 m104 0 v-24 m-104 24 q0 10 10 10 m84 0 q10 0 10 -10 m-94 10 h10 m60 0 h10 m0 0 h4 m-94 -10 v20 m104 0 v-20 m-104 20 v24 m104 0 v-24 m-104 24 q0 10 10 10 m84 0 q10 0 10 -10 m-94 10 h10 m50 0 h10 m0 0 h14 m23 -528 h-3"/>
   <polygon points="153 17 161 13 161 21"/>
   <polygon points="153 17 145 13 145 21"/>
</svg>
