<?xml version="1.0" encoding="UTF-8"?>
<svg xmlns="http://www.w3.org/2000/svg" width="921" height="81">
   <defs>
      <style type="text/css">
    @namespace "http://www.w3.org/2000/svg";
    .line                 {fill: none; stroke: #242424; stroke-width: 1;}
    .bold-line            {stroke: #0A0A0A; shape-rendering: crispEdges; stroke-width: 2;}
    .thin-line            {stroke: #0F0F0F; shape-rendering: crispEdges}
    .filled               {fill: #242424; stroke: none;}
    text.terminal         {font-family: Verdana, Sans-serif;
                            font-size: 12px;
                            fill: #0A0A0A;
                            font-weight: bold;
                          }
    text.nonterminal      {font-family: Verdana, Sans-serif;
                            font-size: 12px;
                            fill: #0D0D0D;
                            font-weight: normal;
                          }
    text.regexp           {font-family: Verdana, Sans-serif;
                            font-size: 12px;
                            fill: #0F0F0F;
                            font-weight: normal;
                          }
    rect, circle, polygon {fill: #242424; stroke: #242424;}
    rect.terminal         {fill: #F2F2F2; stroke: #242424; stroke-width: 1;}
    rect.nonterminal      {fill: #F8F8F8; stroke: #242424; stroke-width: 1;}
    rect.text             {fill: none; stroke: none;}
    polygon.regexp        {fill: #FBFBFB; stroke: #242424; stroke-width: 1;}
  </style>
   </defs>
   <polygon points="9 17 1 13 1 21"/>
   <polygon points="17 17 9 13 9 21"/>
   <rect x="31" y="3" width="28" height="32" rx="10"/>
   <rect x="29"
          y="1"
          width="28"
          height="32"
          class="terminal"
          rx="10"/>
   <text class="terminal" x="39" y="21">{</text>
   <rect x="79" y="3" width="62" height="32" rx="10"/>
   <rect x="77"
          y="1"
          width="62"
          height="32"
          class="terminal"
          rx="10"/>
   <text class="terminal" x="87" y="21">"kind"</text>
   <rect x="161" y="3" width="24" height="32" rx="10"/>
   <rect x="159"
          y="1"
          width="24"
          height="32"
          class="terminal"
          rx="10"/>
   <text class="terminal" x="169" y="21">:</text>
   <rect x="205" y="3" width="64" height="32" rx="10"/>
   <rect x="203"
          y="1"
          width="64"
          height="32"
          class="terminal"
          rx="10"/>
   <text class="terminal" x="213" y="21">"Bool"</text>
   <rect x="289" y="3" width="24" height="32" rx="10"/>
   <rect x="287"
          y="1"
          width="24"
          height="32"
          class="terminal"
          rx="10"/>
   <text class="terminal" x="297" y="21">,</text>
   <rect x="333" y="3" width="70" height="32" rx="10"/>
   <rect x="331"
          y="1"
          width="70"
          height="32"
          class="terminal"
          rx="10"/>
   <text class="terminal" x="341" y="21">"value"</text>
   <rect x="423" y="3" width="24" height="32" rx="10"/>
   <rect x="421"
          y="1"
          width="24"
          height="32"
          class="terminal"
          rx="10"/>
   <text class="terminal" x="431" y="21">:</text>
   <rect x="487" y="3" width="52" height="32" rx="10"/>
   <rect x="485"
          y="1"
          width="52"
          height="32"
          class="terminal"
          rx="10"/>
   <text class="terminal" x="495" y="21">false</text>
   <rect x="487" y="47" width="48" height="32" rx="10"/>
   <rect x="485"
          y="45"
          width="48"
          height="32"
          class="terminal"
          rx="10"/>
   <text class="terminal" x="495" y="65">true</text>
   <rect x="579" y="3" width="24" height="32" rx="10"/>
   <rect x="577"
          y="1"
          width="24"
          height="32"
          class="terminal"
          rx="10"/>
   <text class="terminal" x="587" y="21">,</text>
   <rect x="623" y="3" width="88" height="32" rx="10"/>
   <rect x="621"
          y="1"
          width="88"
          height="32"
          class="terminal"
          rx="10"/>
   <text class="terminal" x="631" y="21">"location"</text>
   <rect x="731" y="3" width="24" height="32" rx="10"/>
   <rect x="729"
          y="1"
          width="24"
          height="32"
          class="terminal"
          rx="10"/>
   <text class="terminal" x="739" y="21">:</text>
   <a xmlns:xlink="http://www.w3.org/1999/xlink"
       xlink:href="#location"
       xlink:title="location">
      <rect x="775" y="3" width="70" height="32"/>
      <rect x="773" y="1" width="70" height="32" class="nonterminal"/>
      <text class="nonterminal" x="783" y="21">location</text>
   </a>
   <rect x="865" y="3" width="28" height="32" rx="10"/>
   <rect x="863"
          y="1"
          width="28"
          height="32"
          class="terminal"
          rx="10"/>
   <text class="terminal" x="873" y="21">}</text>
   <path class="line"
          d="m17 17 h2 m0 0 h10 m28 0 h10 m0 0 h10 m62 0 h10 m0 0 h10 m24 0 h10 m0 0 h10 m64 0 h10 m0 0 h10 m24 0 h10 m0 0 h10 m70 0 h10 m0 0 h10 m24 0 h10 m20 0 h10 m52 0 h10 m-92 0 h20 m72 0 h20 m-112 0 q10 0 10 10 m92 0 q0 -10 10 -10 m-102 10 v24 m92 0 v-24 m-92 24 q0 10 10 10 m72 0 q10 0 10 -10 m-82 10 h10 m48 0 h10 m0 0 h4 m20 -44 h10 m24 0 h10 m0 0 h10 m88 0 h10 m0 0 h10 m24 0 h10 m0 0 h10 m70 0 h10 m0 0 h10 m28 0 h10 m3 0 h-3"/>
   <polygon points="911 17 919 13 919 21"/>
   <polygon points="911 17 903 13 903 21"/>
</svg>
