<?xml version="1.0" encoding="UTF-8"?>
<svg xmlns="http://www.w3.org/2000/svg" width="991" height="163">
   <defs>
      <style type="text/css">
    @namespace "http://www.w3.org/2000/svg";
    .line                 {fill: none; stroke: #242424; stroke-width: 1;}
    .bold-line            {stroke: #0A0A0A; shape-rendering: crispEdges; stroke-width: 2;}
    .thin-line            {stroke: #0F0F0F; shape-rendering: crispEdges}
    .filled               {fill: #242424; stroke: none;}
    text.terminal         {font-family: Verdana, Sans-serif;
                            font-size: 12px;
                            fill: #0A0A0A;
                            font-weight: bold;
                          }
    text.nonterminal      {font-family: Verdana, Sans-serif;
                            font-size: 12px;
                            fill: #0D0D0D;
                            font-weight: normal;
                          }
    text.regexp           {font-family: Verdana, Sans-serif;
                            font-size: 12px;
                            fill: #0F0F0F;
                            font-weight: normal;
                          }
    rect, circle, polygon {fill: #242424; stroke: #242424;}
    rect.terminal         {fill: #F2F2F2; stroke: #242424; stroke-width: 1;}
    rect.nonterminal      {fill: #F8F8F8; stroke: #242424; stroke-width: 1;}
    rect.text             {fill: none; stroke: none;}
    polygon.regexp        {fill: #FBFBFB; stroke: #242424; stroke-width: 1;}
  </style>
   </defs>
   <polygon points="9 61 1 57 1 65"/>
   <polygon points="17 61 9 57 9 65"/>
   <rect x="31" y="47" width="28" height="32" rx="10"/>
   <rect x="29"
          y="45"
          width="28"
          height="32"
          class="terminal"
          rx="10"/>
   <text class="terminal" x="39" y="65">{</text>
   <rect x="79" y="47" width="62" height="32" rx="10"/>
   <rect x="77"
          y="45"
          width="62"
          height="32"
          class="terminal"
          rx="10"/>
   <text class="terminal" x="87" y="65">"kind"</text>
   <rect x="161" y="47" width="24" height="32" rx="10"/>
   <rect x="159"
          y="45"
          width="24"
          height="32"
          class="terminal"
          rx="10"/>
   <text class="terminal" x="169" y="65">:</text>
   <rect x="205" y="47" width="58" height="32" rx="10"/>
   <rect x="203"
          y="45"
          width="58"
          height="32"
          class="terminal"
          rx="10"/>
   <text class="terminal" x="213" y="65">"Call"</text>
   <rect x="283" y="47" width="24" height="32" rx="10"/>
   <rect x="281"
          y="45"
          width="24"
          height="32"
          class="terminal"
          rx="10"/>
   <text class="terminal" x="291" y="65">,</text>
   <rect x="327" y="47" width="72" height="32" rx="10"/>
   <rect x="325"
          y="45"
          width="72"
          height="32"
          class="terminal"
          rx="10"/>
   <text class="terminal" x="335" y="65">"callee"</text>
   <rect x="419" y="47" width="24" height="32" rx="10"/>
   <rect x="417"
          y="45"
          width="24"
          height="32"
          class="terminal"
          rx="10"/>
   <text class="terminal" x="427" y="65">:</text>
   <a xmlns:xlink="http://www.w3.org/1999/xlink"
       xlink:href="#term"
       xlink:title="term">
      <rect x="463" y="47" width="50" height="32"/>
      <rect x="461" y="45" width="50" height="32" class="nonterminal"/>
      <text class="nonterminal" x="471" y="65">term</text>
   </a>
   <rect x="533" y="47" width="24" height="32" rx="10"/>
   <rect x="531"
          y="45"
          width="24"
          height="32"
          class="terminal"
          rx="10"/>
   <text class="terminal" x="541" y="65">,</text>
   <rect x="577" y="47" width="106" height="32" rx="10"/>
   <rect x="575"
          y="45"
          width="106"
          height="32"
          class="terminal"
          rx="10"/>
   <text class="terminal" x="585" y="65">"arguments"</text>
   <rect x="703" y="47" width="24" height="32" rx="10"/>
   <rect x="701"
          y="45"
          width="24"
          height="32"
          class="terminal"
          rx="10"/>
   <text class="terminal" x="711" y="65">:</text>
   <rect x="747" y="47" width="26" height="32" rx="10"/>
   <rect x="745"
          y="45"
          width="26"
          height="32"
          class="terminal"
          rx="10"/>
   <text class="terminal" x="755" y="65">[</text>
   <a xmlns:xlink="http://www.w3.org/1999/xlink"
       xlink:href="#term"
       xlink:title="term">
      <rect x="833" y="47" width="50" height="32"/>
      <rect x="831" y="45" width="50" height="32" class="nonterminal"/>
      <text class="nonterminal" x="841" y="65">term</text>
   </a>
   <rect x="833" y="3" width="24" height="32" rx="10"/>
   <rect x="831"
          y="1"
          width="24"
          height="32"
          class="terminal"
          rx="10"/>
   <text class="terminal" x="841" y="21">,</text>
   <rect x="943" y="47" width="26" height="32" rx="10"/>
   <rect x="941"
          y="45"
          width="26"
          height="32"
          class="terminal"
          rx="10"/>
   <text class="terminal" x="951" y="65">]</text>
   <rect x="649" y="129" width="24" height="32" rx="10"/>
   <rect x="647"
          y="127"
          width="24"
          height="32"
          class="terminal"
          rx="10"/>
   <text class="terminal" x="657" y="147">,</text>
   <rect x="693" y="129" width="88" height="32" rx="10"/>
   <rect x="691"
          y="127"
          width="88"
          height="32"
          class="terminal"
          rx="10"/>
   <text class="terminal" x="701" y="147">"location"</text>
   <rect x="801" y="129" width="24" height="32" rx="10"/>
   <rect x="799"
          y="127"
          width="24"
          height="32"
          class="terminal"
          rx="10"/>
   <text class="terminal" x="809" y="147">:</text>
   <a xmlns:xlink="http://www.w3.org/1999/xlink"
       xlink:href="#location"
       xlink:title="location">
      <rect x="845" y="129" width="70" height="32"/>
      <rect x="843" y="127" width="70" height="32" class="nonterminal"/>
      <text class="nonterminal" x="853" y="147">location</text>
   </a>
   <rect x="935" y="129" width="28" height="32" rx="10"/>
   <rect x="933"
          y="127"
          width="28"
          height="32"
          class="terminal"
          rx="10"/>
   <text class="terminal" x="943" y="147">}</text>
   <path class="line"
          d="m17 61 h2 m0 0 h10 m28 0 h10 m0 0 h10 m62 0 h10 m0 0 h10 m24 0 h10 m0 0 h10 m58 0 h10 m0 0 h10 m24 0 h10 m0 0 h10 m72 0 h10 m0 0 h10 m24 0 h10 m0 0 h10 m50 0 h10 m0 0 h10 m24 0 h10 m0 0 h10 m106 0 h10 m0 0 h10 m24 0 h10 m0 0 h10 m26 0 h10 m40 0 h10 m50 0 h10 m-90 0 l20 0 m-1 0 q-9 0 -9 -10 l0 -24 q0 -10 10 -10 m70 44 l20 0 m-20 0 q10 0 10 -10 l0 -24 q0 -10 -10 -10 m-70 0 h10 m24 0 h10 m0 0 h26 m-110 44 h20 m110 0 h20 m-150 0 q10 0 10 10 m130 0 q0 -10 10 -10 m-140 10 v14 m130 0 v-14 m-130 14 q0 10 10 10 m110 0 q10 0 10 -10 m-120 10 h10 m0 0 h100 m20 -34 h10 m26 0 h10 m2 0 l2 0 m2 0 l2 0 m2 0 l2 0 m-364 82 l2 0 m2 0 l2 0 m2 0 l2 0 m2 0 h10 m24 0 h10 m0 0 h10 m88 0 h10 m0 0 h10 m24 0 h10 m0 0 h10 m70 0 h10 m0 0 h10 m28 0 h10 m3 0 h-3"/>
   <polygon points="981 143 989 139 989 147"/>
   <polygon points="981 143 973 139 973 147"/>
</svg>
