<?xml version="1.0" encoding="UTF-8"?>
<svg xmlns="http://www.w3.org/2000/svg" width="995" height="163">
   <defs>
      <style type="text/css">
    @namespace "http://www.w3.org/2000/svg";
    .line                 {fill: none; stroke: #242424; stroke-width: 1;}
    .bold-line            {stroke: #0A0A0A; shape-rendering: crispEdges; stroke-width: 2;}
    .thin-line            {stroke: #0F0F0F; shape-rendering: crispEdges}
    .filled               {fill: #242424; stroke: none;}
    text.terminal         {font-family: Verdana, Sans-serif;
                            font-size: 12px;
                            fill: #0A0A0A;
                            font-weight: bold;
                          }
    text.nonterminal      {font-family: Verdana, Sans-serif;
                            font-size: 12px;
                            fill: #0D0D0D;
                            font-weight: normal;
                          }
    text.regexp           {font-family: Verdana, Sans-serif;
                            font-size: 12px;
                            fill: #0F0F0F;
                            font-weight: normal;
                          }
    rect, circle, polygon {fill: #242424; stroke: #242424;}
    rect.terminal         {fill: #F2F2F2; stroke: #242424; stroke-width: 1;}
    rect.nonterminal      {fill: #F8F8F8; stroke: #242424; stroke-width: 1;}
    rect.text             {fill: none; stroke: none;}
    polygon.regexp        {fill: #FBFBFB; stroke: #242424; stroke-width: 1;}
  </style>
   </defs>
   <polygon points="9 61 1 57 1 65"/>
   <polygon points="17 61 9 57 9 65"/>
   <rect x="31" y="47" width="28" height="32" rx="10"/>
   <rect x="29"
          y="45"
          width="28"
          height="32"
          class="terminal"
          rx="10"/>
   <text class="terminal" x="39" y="65">{</text>
   <rect x="79" y="47" width="62" height="32" rx="10"/>
   <rect x="77"
          y="45"
          width="62"
          height="32"
          class="terminal"
          rx="10"/>
   <text class="terminal" x="87" y="65">"kind"</text>
   <rect x="161" y="47" width="24" height="32" rx="10"/>
   <rect x="159"
          y="45"
          width="24"
          height="32"
          class="terminal"
          rx="10"/>
   <text class="terminal" x="169" y="65">:</text>
   <rect x="205" y="47" width="92" height="32" rx="10"/>
   <rect x="203"
          y="45"
          width="92"
          height="32"
          class="terminal"
          rx="10"/>
   <text class="terminal" x="213" y="65">"Function"</text>
   <rect x="317" y="47" width="24" height="32" rx="10"/>
   <rect x="315"
          y="45"
          width="24"
          height="32"
          class="terminal"
          rx="10"/>
   <text class="terminal" x="325" y="65">,</text>
   <rect x="361" y="47" width="112" height="32" rx="10"/>
   <rect x="359"
          y="45"
          width="112"
          height="32"
          class="terminal"
          rx="10"/>
   <text class="terminal" x="369" y="65">"parameters"</text>
   <rect x="493" y="47" width="24" height="32" rx="10"/>
   <rect x="491"
          y="45"
          width="24"
          height="32"
          class="terminal"
          rx="10"/>
   <text class="terminal" x="501" y="65">:</text>
   <rect x="537" y="47" width="26" height="32" rx="10"/>
   <rect x="535"
          y="45"
          width="26"
          height="32"
          class="terminal"
          rx="10"/>
   <text class="terminal" x="545" y="65">[</text>
   <a xmlns:xlink="http://www.w3.org/1999/xlink"
       xlink:href="#parameter"
       xlink:title="parameter">
      <rect x="623" y="47" width="86" height="32"/>
      <rect x="621" y="45" width="86" height="32" class="nonterminal"/>
      <text class="nonterminal" x="631" y="65">parameter</text>
   </a>
   <rect x="623" y="3" width="24" height="32" rx="10"/>
   <rect x="621"
          y="1"
          width="24"
          height="32"
          class="terminal"
          rx="10"/>
   <text class="terminal" x="631" y="21">,</text>
   <rect x="769" y="47" width="26" height="32" rx="10"/>
   <rect x="767"
          y="45"
          width="26"
          height="32"
          class="terminal"
          rx="10"/>
   <text class="terminal" x="777" y="65">]</text>
   <rect x="815" y="47" width="24" height="32" rx="10"/>
   <rect x="813"
          y="45"
          width="24"
          height="32"
          class="terminal"
          rx="10"/>
   <text class="terminal" x="823" y="65">,</text>
   <rect x="859" y="47" width="70" height="32" rx="10"/>
   <rect x="857"
          y="45"
          width="70"
          height="32"
          class="terminal"
          rx="10"/>
   <text class="terminal" x="867" y="65">"value"</text>
   <rect x="949" y="47" width="24" height="32" rx="10"/>
   <rect x="947"
          y="45"
          width="24"
          height="32"
          class="terminal"
          rx="10"/>
   <text class="terminal" x="957" y="65">:</text>
   <a xmlns:xlink="http://www.w3.org/1999/xlink"
       xlink:href="#term"
       xlink:title="term">
      <rect x="583" y="129" width="50" height="32"/>
      <rect x="581" y="127" width="50" height="32" class="nonterminal"/>
      <text class="nonterminal" x="591" y="147">term</text>
   </a>
   <rect x="653" y="129" width="24" height="32" rx="10"/>
   <rect x="651"
          y="127"
          width="24"
          height="32"
          class="terminal"
          rx="10"/>
   <text class="terminal" x="661" y="147">,</text>
   <rect x="697" y="129" width="88" height="32" rx="10"/>
   <rect x="695"
          y="127"
          width="88"
          height="32"
          class="terminal"
          rx="10"/>
   <text class="terminal" x="705" y="147">"location"</text>
   <rect x="805" y="129" width="24" height="32" rx="10"/>
   <rect x="803"
          y="127"
          width="24"
          height="32"
          class="terminal"
          rx="10"/>
   <text class="terminal" x="813" y="147">:</text>
   <a xmlns:xlink="http://www.w3.org/1999/xlink"
       xlink:href="#location"
       xlink:title="location">
      <rect x="849" y="129" width="70" height="32"/>
      <rect x="847" y="127" width="70" height="32" class="nonterminal"/>
      <text class="nonterminal" x="857" y="147">location</text>
   </a>
   <rect x="939" y="129" width="28" height="32" rx="10"/>
   <rect x="937"
          y="127"
          width="28"
          height="32"
          class="terminal"
          rx="10"/>
   <text class="terminal" x="947" y="147">}</text>
   <path class="line"
          d="m17 61 h2 m0 0 h10 m28 0 h10 m0 0 h10 m62 0 h10 m0 0 h10 m24 0 h10 m0 0 h10 m92 0 h10 m0 0 h10 m24 0 h10 m0 0 h10 m112 0 h10 m0 0 h10 m24 0 h10 m0 0 h10 m26 0 h10 m40 0 h10 m86 0 h10 m-126 0 l20 0 m-1 0 q-9 0 -9 -10 l0 -24 q0 -10 10 -10 m106 44 l20 0 m-20 0 q10 0 10 -10 l0 -24 q0 -10 -10 -10 m-106 0 h10 m24 0 h10 m0 0 h62 m-146 44 h20 m146 0 h20 m-186 0 q10 0 10 10 m166 0 q0 -10 10 -10 m-176 10 v14 m166 0 v-14 m-166 14 q0 10 10 10 m146 0 q10 0 10 -10 m-156 10 h10 m0 0 h136 m20 -34 h10 m26 0 h10 m0 0 h10 m24 0 h10 m0 0 h10 m70 0 h10 m0 0 h10 m24 0 h10 m2 0 l2 0 m2 0 l2 0 m2 0 l2 0 m-434 82 l2 0 m2 0 l2 0 m2 0 l2 0 m2 0 h10 m50 0 h10 m0 0 h10 m24 0 h10 m0 0 h10 m88 0 h10 m0 0 h10 m24 0 h10 m0 0 h10 m70 0 h10 m0 0 h10 m28 0 h10 m3 0 h-3"/>
   <polygon points="985 143 993 139 993 147"/>
   <polygon points="985 143 977 139 977 147"/>
</svg>
