<?xml version="1.0" encoding="UTF-8"?>
<svg xmlns="http://www.w3.org/2000/svg" width="953" height="103">
   <defs>
      <style type="text/css">
    @namespace "http://www.w3.org/2000/svg";
    .line                 {fill: none; stroke: #242424; stroke-width: 1;}
    .bold-line            {stroke: #0A0A0A; shape-rendering: crispEdges; stroke-width: 2;}
    .thin-line            {stroke: #0F0F0F; shape-rendering: crispEdges}
    .filled               {fill: #242424; stroke: none;}
    text.terminal         {font-family: Verdana, Sans-serif;
                            font-size: 12px;
                            fill: #0A0A0A;
                            font-weight: bold;
                          }
    text.nonterminal      {font-family: Verdana, Sans-serif;
                            font-size: 12px;
                            fill: #0D0D0D;
                            font-weight: normal;
                          }
    text.regexp           {font-family: Verdana, Sans-serif;
                            font-size: 12px;
                            fill: #0F0F0F;
                            font-weight: normal;
                          }
    rect, circle, polygon {fill: #242424; stroke: #242424;}
    rect.terminal         {fill: #F2F2F2; stroke: #242424; stroke-width: 1;}
    rect.nonterminal      {fill: #F8F8F8; stroke: #242424; stroke-width: 1;}
    rect.text             {fill: none; stroke: none;}
    polygon.regexp        {fill: #FBFBFB; stroke: #242424; stroke-width: 1;}
  </style>
   </defs>
   <polygon points="9 17 1 13 1 21"/>
   <polygon points="17 17 9 13 9 21"/>
   <rect x="31" y="3" width="28" height="32" rx="10"/>
   <rect x="29"
          y="1"
          width="28"
          height="32"
          class="terminal"
          rx="10"/>
   <text class="terminal" x="39" y="21">{</text>
   <rect x="79" y="3" width="62" height="32" rx="10"/>
   <rect x="77"
          y="1"
          width="62"
          height="32"
          class="terminal"
          rx="10"/>
   <text class="terminal" x="87" y="21">"kind"</text>
   <rect x="161" y="3" width="24" height="32" rx="10"/>
   <rect x="159"
          y="1"
          width="24"
          height="32"
          class="terminal"
          rx="10"/>
   <text class="terminal" x="169" y="21">:</text>
   <rect x="205" y="3" width="46" height="32" rx="10"/>
   <rect x="203"
          y="1"
          width="46"
          height="32"
          class="terminal"
          rx="10"/>
   <text class="terminal" x="213" y="21">"If"</text>
   <rect x="271" y="3" width="24" height="32" rx="10"/>
   <rect x="269"
          y="1"
          width="24"
          height="32"
          class="terminal"
          rx="10"/>
   <text class="terminal" x="279" y="21">,</text>
   <rect x="315" y="3" width="96" height="32" rx="10"/>
   <rect x="313"
          y="1"
          width="96"
          height="32"
          class="terminal"
          rx="10"/>
   <text class="terminal" x="323" y="21">"condition"</text>
   <rect x="431" y="3" width="24" height="32" rx="10"/>
   <rect x="429"
          y="1"
          width="24"
          height="32"
          class="terminal"
          rx="10"/>
   <text class="terminal" x="439" y="21">:</text>
   <a xmlns:xlink="http://www.w3.org/1999/xlink"
       xlink:href="#term"
       xlink:title="term">
      <rect x="475" y="3" width="50" height="32"/>
      <rect x="473" y="1" width="50" height="32" class="nonterminal"/>
      <text class="nonterminal" x="483" y="21">term</text>
   </a>
   <rect x="545" y="3" width="24" height="32" rx="10"/>
   <rect x="543"
          y="1"
          width="24"
          height="32"
          class="terminal"
          rx="10"/>
   <text class="terminal" x="553" y="21">,</text>
   <rect x="589" y="3" width="64" height="32" rx="10"/>
   <rect x="587"
          y="1"
          width="64"
          height="32"
          class="terminal"
          rx="10"/>
   <text class="terminal" x="597" y="21">"then"</text>
   <rect x="673" y="3" width="24" height="32" rx="10"/>
   <rect x="671"
          y="1"
          width="24"
          height="32"
          class="terminal"
          rx="10"/>
   <text class="terminal" x="681" y="21">:</text>
   <a xmlns:xlink="http://www.w3.org/1999/xlink"
       xlink:href="#term"
       xlink:title="term">
      <rect x="717" y="3" width="50" height="32"/>
      <rect x="715" y="1" width="50" height="32" class="nonterminal"/>
      <text class="nonterminal" x="725" y="21">term</text>
   </a>
   <rect x="787" y="3" width="24" height="32" rx="10"/>
   <rect x="785"
          y="1"
          width="24"
          height="32"
          class="terminal"
          rx="10"/>
   <text class="terminal" x="795" y="21">,</text>
   <rect x="831" y="3" width="100" height="32" rx="10"/>
   <rect x="829"
          y="1"
          width="100"
          height="32"
          class="terminal"
          rx="10"/>
   <text class="terminal" x="839" y="21">"otherwise"</text>
   <rect x="497" y="69" width="24" height="32" rx="10"/>
   <rect x="495"
          y="67"
          width="24"
          height="32"
          class="terminal"
          rx="10"/>
   <text class="terminal" x="505" y="87">:</text>
   <a xmlns:xlink="http://www.w3.org/1999/xlink"
       xlink:href="#term"
       xlink:title="term">
      <rect x="541" y="69" width="50" height="32"/>
      <rect x="539" y="67" width="50" height="32" class="nonterminal"/>
      <text class="nonterminal" x="549" y="87">term</text>
   </a>
   <rect x="611" y="69" width="24" height="32" rx="10"/>
   <rect x="609"
          y="67"
          width="24"
          height="32"
          class="terminal"
          rx="10"/>
   <text class="terminal" x="619" y="87">,</text>
   <rect x="655" y="69" width="88" height="32" rx="10"/>
   <rect x="653"
          y="67"
          width="88"
          height="32"
          class="terminal"
          rx="10"/>
   <text class="terminal" x="663" y="87">"location"</text>
   <rect x="763" y="69" width="24" height="32" rx="10"/>
   <rect x="761"
          y="67"
          width="24"
          height="32"
          class="terminal"
          rx="10"/>
   <text class="terminal" x="771" y="87">:</text>
   <a xmlns:xlink="http://www.w3.org/1999/xlink"
       xlink:href="#location"
       xlink:title="location">
      <rect x="807" y="69" width="70" height="32"/>
      <rect x="805" y="67" width="70" height="32" class="nonterminal"/>
      <text class="nonterminal" x="815" y="87">location</text>
   </a>
   <rect x="897" y="69" width="28" height="32" rx="10"/>
   <rect x="895"
          y="67"
          width="28"
          height="32"
          class="terminal"
          rx="10"/>
   <text class="terminal" x="905" y="87">}</text>
   <path class="line"
          d="m17 17 h2 m0 0 h10 m28 0 h10 m0 0 h10 m62 0 h10 m0 0 h10 m24 0 h10 m0 0 h10 m46 0 h10 m0 0 h10 m24 0 h10 m0 0 h10 m96 0 h10 m0 0 h10 m24 0 h10 m0 0 h10 m50 0 h10 m0 0 h10 m24 0 h10 m0 0 h10 m64 0 h10 m0 0 h10 m24 0 h10 m0 0 h10 m50 0 h10 m0 0 h10 m24 0 h10 m0 0 h10 m100 0 h10 m2 0 l2 0 m2 0 l2 0 m2 0 l2 0 m-478 66 l2 0 m2 0 l2 0 m2 0 l2 0 m2 0 h10 m24 0 h10 m0 0 h10 m50 0 h10 m0 0 h10 m24 0 h10 m0 0 h10 m88 0 h10 m0 0 h10 m24 0 h10 m0 0 h10 m70 0 h10 m0 0 h10 m28 0 h10 m3 0 h-3"/>
   <polygon points="943 83 951 79 951 87"/>
   <polygon points="943 83 935 79 935 87"/>
</svg>
