<?xml version="1.0" encoding="UTF-8"?>
<svg xmlns="http://www.w3.org/2000/svg" width="985" height="103">
   <defs>
      <style type="text/css">
    @namespace "http://www.w3.org/2000/svg";
    .line                 {fill: none; stroke: #242424; stroke-width: 1;}
    .bold-line            {stroke: #0A0A0A; shape-rendering: crispEdges; stroke-width: 2;}
    .thin-line            {stroke: #0F0F0F; shape-rendering: crispEdges}
    .filled               {fill: #242424; stroke: none;}
    text.terminal         {font-family: Verdana, Sans-serif;
                            font-size: 12px;
                            fill: #0A0A0A;
                            font-weight: bold;
                          }
    text.nonterminal      {font-family: Verdana, Sans-serif;
                            font-size: 12px;
                            fill: #0D0D0D;
                            font-weight: normal;
                          }
    text.regexp           {font-family: Verdana, Sans-serif;
                            font-size: 12px;
                            fill: #0F0F0F;
                            font-weight: normal;
                          }
    rect, circle, polygon {fill: #242424; stroke: #242424;}
    rect.terminal         {fill: #F2F2F2; stroke: #242424; stroke-width: 1;}
    rect.nonterminal      {fill: #F8F8F8; stroke: #242424; stroke-width: 1;}
    rect.text             {fill: none; stroke: none;}
    polygon.regexp        {fill: #FBFBFB; stroke: #242424; stroke-width: 1;}
  </style>
   </defs>
   <polygon points="9 17 1 13 1 21"/>
   <polygon points="17 17 9 13 9 21"/>
   <rect x="31" y="3" width="28" height="32" rx="10"/>
   <rect x="29"
          y="1"
          width="28"
          height="32"
          class="terminal"
          rx="10"/>
   <text class="terminal" x="39" y="21">{</text>
   <rect x="79" y="3" width="62" height="32" rx="10"/>
   <rect x="77"
          y="1"
          width="62"
          height="32"
          class="terminal"
          rx="10"/>
   <text class="terminal" x="87" y="21">"kind"</text>
   <rect x="161" y="3" width="24" height="32" rx="10"/>
   <rect x="159"
          y="1"
          width="24"
          height="32"
          class="terminal"
          rx="10"/>
   <text class="terminal" x="169" y="21">:</text>
   <rect x="205" y="3" width="54" height="32" rx="10"/>
   <rect x="203"
          y="1"
          width="54"
          height="32"
          class="terminal"
          rx="10"/>
   <text class="terminal" x="213" y="21">"Let"</text>
   <rect x="279" y="3" width="24" height="32" rx="10"/>
   <rect x="277"
          y="1"
          width="24"
          height="32"
          class="terminal"
          rx="10"/>
   <text class="terminal" x="287" y="21">,</text>
   <rect x="323" y="3" width="70" height="32" rx="10"/>
   <rect x="321"
          y="1"
          width="70"
          height="32"
          class="terminal"
          rx="10"/>
   <text class="terminal" x="331" y="21">"name"</text>
   <rect x="413" y="3" width="24" height="32" rx="10"/>
   <rect x="411"
          y="1"
          width="24"
          height="32"
          class="terminal"
          rx="10"/>
   <text class="terminal" x="421" y="21">:</text>
   <a xmlns:xlink="http://www.w3.org/1999/xlink"
       xlink:href="#parameter"
       xlink:title="parameter">
      <rect x="457" y="3" width="86" height="32"/>
      <rect x="455" y="1" width="86" height="32" class="nonterminal"/>
      <text class="nonterminal" x="465" y="21">parameter</text>
   </a>
   <rect x="563" y="3" width="24" height="32" rx="10"/>
   <rect x="561"
          y="1"
          width="24"
          height="32"
          class="terminal"
          rx="10"/>
   <text class="terminal" x="571" y="21">,</text>
   <rect x="607" y="3" width="70" height="32" rx="10"/>
   <rect x="605"
          y="1"
          width="70"
          height="32"
          class="terminal"
          rx="10"/>
   <text class="terminal" x="615" y="21">"value"</text>
   <rect x="697" y="3" width="24" height="32" rx="10"/>
   <rect x="695"
          y="1"
          width="24"
          height="32"
          class="terminal"
          rx="10"/>
   <text class="terminal" x="705" y="21">:</text>
   <a xmlns:xlink="http://www.w3.org/1999/xlink"
       xlink:href="#term"
       xlink:title="term">
      <rect x="741" y="3" width="50" height="32"/>
      <rect x="739" y="1" width="50" height="32" class="nonterminal"/>
      <text class="nonterminal" x="749" y="21">term</text>
   </a>
   <rect x="811" y="3" width="24" height="32" rx="10"/>
   <rect x="809"
          y="1"
          width="24"
          height="32"
          class="terminal"
          rx="10"/>
   <text class="terminal" x="819" y="21">,</text>
   <rect x="855" y="3" width="64" height="32" rx="10"/>
   <rect x="853"
          y="1"
          width="64"
          height="32"
          class="terminal"
          rx="10"/>
   <text class="terminal" x="863" y="21">"next"</text>
   <rect x="939" y="3" width="24" height="32" rx="10"/>
   <rect x="937"
          y="1"
          width="24"
          height="32"
          class="terminal"
          rx="10"/>
   <text class="terminal" x="947" y="21">:</text>
   <a xmlns:xlink="http://www.w3.org/1999/xlink"
       xlink:href="#term"
       xlink:title="term">
      <rect x="573" y="69" width="50" height="32"/>
      <rect x="571" y="67" width="50" height="32" class="nonterminal"/>
      <text class="nonterminal" x="581" y="87">term</text>
   </a>
   <rect x="643" y="69" width="24" height="32" rx="10"/>
   <rect x="641"
          y="67"
          width="24"
          height="32"
          class="terminal"
          rx="10"/>
   <text class="terminal" x="651" y="87">,</text>
   <rect x="687" y="69" width="88" height="32" rx="10"/>
   <rect x="685"
          y="67"
          width="88"
          height="32"
          class="terminal"
          rx="10"/>
   <text class="terminal" x="695" y="87">"location"</text>
   <rect x="795" y="69" width="24" height="32" rx="10"/>
   <rect x="793"
          y="67"
          width="24"
          height="32"
          class="terminal"
          rx="10"/>
   <text class="terminal" x="803" y="87">:</text>
   <a xmlns:xlink="http://www.w3.org/1999/xlink"
       xlink:href="#location"
       xlink:title="location">
      <rect x="839" y="69" width="70" height="32"/>
      <rect x="837" y="67" width="70" height="32" class="nonterminal"/>
      <text class="nonterminal" x="847" y="87">location</text>
   </a>
   <rect x="929" y="69" width="28" height="32" rx="10"/>
   <rect x="927"
          y="67"
          width="28"
          height="32"
          class="terminal"
          rx="10"/>
   <text class="terminal" x="937" y="87">}</text>
   <path class="line"
          d="m17 17 h2 m0 0 h10 m28 0 h10 m0 0 h10 m62 0 h10 m0 0 h10 m24 0 h10 m0 0 h10 m54 0 h10 m0 0 h10 m24 0 h10 m0 0 h10 m70 0 h10 m0 0 h10 m24 0 h10 m0 0 h10 m86 0 h10 m0 0 h10 m24 0 h10 m0 0 h10 m70 0 h10 m0 0 h10 m24 0 h10 m0 0 h10 m50 0 h10 m0 0 h10 m24 0 h10 m0 0 h10 m64 0 h10 m0 0 h10 m24 0 h10 m2 0 l2 0 m2 0 l2 0 m2 0 l2 0 m-434 66 l2 0 m2 0 l2 0 m2 0 l2 0 m2 0 h10 m50 0 h10 m0 0 h10 m24 0 h10 m0 0 h10 m88 0 h10 m0 0 h10 m24 0 h10 m0 0 h10 m70 0 h10 m0 0 h10 m28 0 h10 m3 0 h-3"/>
   <polygon points="975 83 983 79 983 87"/>
   <polygon points="975 83 967 79 967 87"/>
</svg>
