<?xml version="1.0" encoding="UTF-8"?>
<svg xmlns="http://www.w3.org/2000/svg" width="837" height="37">
   <defs>
      <style type="text/css">
    @namespace "http://www.w3.org/2000/svg";
    .line                 {fill: none; stroke: #242424; stroke-width: 1;}
    .bold-line            {stroke: #0A0A0A; shape-rendering: crispEdges; stroke-width: 2;}
    .thin-line            {stroke: #0F0F0F; shape-rendering: crispEdges}
    .filled               {fill: #242424; stroke: none;}
    text.terminal         {font-family: Verdana, Sans-serif;
                            font-size: 12px;
                            fill: #0A0A0A;
                            font-weight: bold;
                          }
    text.nonterminal      {font-family: Verdana, Sans-serif;
                            font-size: 12px;
                            fill: #0D0D0D;
                            font-weight: normal;
                          }
    text.regexp           {font-family: Verdana, Sans-serif;
                            font-size: 12px;
                            fill: #0F0F0F;
                            font-weight: normal;
                          }
    rect, circle, polygon {fill: #242424; stroke: #242424;}
    rect.terminal         {fill: #F2F2F2; stroke: #242424; stroke-width: 1;}
    rect.nonterminal      {fill: #F8F8F8; stroke: #242424; stroke-width: 1;}
    rect.text             {fill: none; stroke: none;}
    polygon.regexp        {fill: #FBFBFB; stroke: #242424; stroke-width: 1;}
  </style>
   </defs>
   <polygon points="9 17 1 13 1 21"/>
   <polygon points="17 17 9 13 9 21"/>
   <rect x="31" y="3" width="28" height="32" rx="10"/>
   <rect x="29"
          y="1"
          width="28"
          height="32"
          class="terminal"
          rx="10"/>
   <text class="terminal" x="39" y="21">{</text>
   <rect x="79" y="3" width="66" height="32" rx="10"/>
   <rect x="77"
          y="1"
          width="66"
          height="32"
          class="terminal"
          rx="10"/>
   <text class="terminal" x="87" y="21">"start"</text>
   <rect x="165" y="3" width="24" height="32" rx="10"/>
   <rect x="163"
          y="1"
          width="24"
          height="32"
          class="terminal"
          rx="10"/>
   <text class="terminal" x="173" y="21">:</text>
   <a xmlns:xlink="http://www.w3.org/1999/xlink"
       xlink:href="#INT"
       xlink:title="INT">
      <rect x="209" y="3" width="40" height="32"/>
      <rect x="207" y="1" width="40" height="32" class="nonterminal"/>
      <text class="nonterminal" x="217" y="21">INT</text>
   </a>
   <rect x="269" y="3" width="24" height="32" rx="10"/>
   <rect x="267"
          y="1"
          width="24"
          height="32"
          class="terminal"
          rx="10"/>
   <text class="terminal" x="277" y="21">,</text>
   <rect x="313" y="3" width="58" height="32" rx="10"/>
   <rect x="311"
          y="1"
          width="58"
          height="32"
          class="terminal"
          rx="10"/>
   <text class="terminal" x="321" y="21">"end"</text>
   <rect x="391" y="3" width="24" height="32" rx="10"/>
   <rect x="389"
          y="1"
          width="24"
          height="32"
          class="terminal"
          rx="10"/>
   <text class="terminal" x="399" y="21">:</text>
   <a xmlns:xlink="http://www.w3.org/1999/xlink"
       xlink:href="#INT"
       xlink:title="INT">
      <rect x="435" y="3" width="40" height="32"/>
      <rect x="433" y="1" width="40" height="32" class="nonterminal"/>
      <text class="nonterminal" x="443" y="21">INT</text>
   </a>
   <rect x="495" y="3" width="24" height="32" rx="10"/>
   <rect x="493"
          y="1"
          width="24"
          height="32"
          class="terminal"
          rx="10"/>
   <text class="terminal" x="503" y="21">,</text>
   <rect x="539" y="3" width="92" height="32" rx="10"/>
   <rect x="537"
          y="1"
          width="92"
          height="32"
          class="terminal"
          rx="10"/>
   <text class="terminal" x="547" y="21">"filename"</text>
   <rect x="651" y="3" width="24" height="32" rx="10"/>
   <rect x="649"
          y="1"
          width="24"
          height="32"
          class="terminal"
          rx="10"/>
   <text class="terminal" x="659" y="21">:</text>
   <a xmlns:xlink="http://www.w3.org/1999/xlink"
       xlink:href="#STRING"
       xlink:title="STRING">
      <rect x="695" y="3" width="66" height="32"/>
      <rect x="693" y="1" width="66" height="32" class="nonterminal"/>
      <text class="nonterminal" x="703" y="21">STRING</text>
   </a>
   <rect x="781" y="3" width="28" height="32" rx="10"/>
   <rect x="779"
          y="1"
          width="28"
          height="32"
          class="terminal"
          rx="10"/>
   <text class="terminal" x="789" y="21">}</text>
   <path class="line"
          d="m17 17 h2 m0 0 h10 m28 0 h10 m0 0 h10 m66 0 h10 m0 0 h10 m24 0 h10 m0 0 h10 m40 0 h10 m0 0 h10 m24 0 h10 m0 0 h10 m58 0 h10 m0 0 h10 m24 0 h10 m0 0 h10 m40 0 h10 m0 0 h10 m24 0 h10 m0 0 h10 m92 0 h10 m0 0 h10 m24 0 h10 m0 0 h10 m66 0 h10 m0 0 h10 m28 0 h10 m3 0 h-3"/>
   <polygon points="827 17 835 13 835 21"/>
   <polygon points="827 17 819 13 819 21"/>
</svg>
