<?xml version="1.0" encoding="UTF-8"?>
<svg xmlns="http://www.w3.org/2000/svg" width="631" height="37">
   <defs>
      <style type="text/css">
    @namespace "http://www.w3.org/2000/svg";
    .line                 {fill: none; stroke: #242424; stroke-width: 1;}
    .bold-line            {stroke: #0A0A0A; shape-rendering: crispEdges; stroke-width: 2;}
    .thin-line            {stroke: #0F0F0F; shape-rendering: crispEdges}
    .filled               {fill: #242424; stroke: none;}
    text.terminal         {font-family: Verdana, Sans-serif;
                            font-size: 12px;
                            fill: #0A0A0A;
                            font-weight: bold;
                          }
    text.nonterminal      {font-family: Verdana, Sans-serif;
                            font-size: 12px;
                            fill: #0D0D0D;
                            font-weight: normal;
                          }
    text.regexp           {font-family: Verdana, Sans-serif;
                            font-size: 12px;
                            fill: #0F0F0F;
                            font-weight: normal;
                          }
    rect, circle, polygon {fill: #242424; stroke: #242424;}
    rect.terminal         {fill: #F2F2F2; stroke: #242424; stroke-width: 1;}
    rect.nonterminal      {fill: #F8F8F8; stroke: #242424; stroke-width: 1;}
    rect.text             {fill: none; stroke: none;}
    polygon.regexp        {fill: #FBFBFB; stroke: #242424; stroke-width: 1;}
  </style>
   </defs>
   <polygon points="9 17 1 13 1 21"/>
   <polygon points="17 17 9 13 9 21"/>
   <rect x="31" y="3" width="28" height="32" rx="10"/>
   <rect x="29"
          y="1"
          width="28"
          height="32"
          class="terminal"
          rx="10"/>
   <text class="terminal" x="39" y="21">{</text>
   <rect x="79" y="3" width="60" height="32" rx="10"/>
   <rect x="77"
          y="1"
          width="60"
          height="32"
          class="terminal"
          rx="10"/>
   <text class="terminal" x="87" y="21">"text"</text>
   <rect x="159" y="3" width="24" height="32" rx="10"/>
   <rect x="157"
          y="1"
          width="24"
          height="32"
          class="terminal"
          rx="10"/>
   <text class="terminal" x="167" y="21">:</text>
   <a xmlns:xlink="http://www.w3.org/1999/xlink"
       xlink:href="#STRING"
       xlink:title="STRING">
      <rect x="203" y="3" width="66" height="32"/>
      <rect x="201" y="1" width="66" height="32" class="nonterminal"/>
      <text class="nonterminal" x="211" y="21">STRING</text>
   </a>
   <rect x="289" y="3" width="24" height="32" rx="10"/>
   <rect x="287"
          y="1"
          width="24"
          height="32"
          class="terminal"
          rx="10"/>
   <text class="terminal" x="297" y="21">,</text>
   <rect x="333" y="3" width="88" height="32" rx="10"/>
   <rect x="331"
          y="1"
          width="88"
          height="32"
          class="terminal"
          rx="10"/>
   <text class="terminal" x="341" y="21">"location"</text>
   <rect x="441" y="3" width="24" height="32" rx="10"/>
   <rect x="439"
          y="1"
          width="24"
          height="32"
          class="terminal"
          rx="10"/>
   <text class="terminal" x="449" y="21">:</text>
   <a xmlns:xlink="http://www.w3.org/1999/xlink"
       xlink:href="#location"
       xlink:title="location">
      <rect x="485" y="3" width="70" height="32"/>
      <rect x="483" y="1" width="70" height="32" class="nonterminal"/>
      <text class="nonterminal" x="493" y="21">location</text>
   </a>
   <rect x="575" y="3" width="28" height="32" rx="10"/>
   <rect x="573"
          y="1"
          width="28"
          height="32"
          class="terminal"
          rx="10"/>
   <text class="terminal" x="583" y="21">}</text>
   <path class="line"
          d="m17 17 h2 m0 0 h10 m28 0 h10 m0 0 h10 m60 0 h10 m0 0 h10 m24 0 h10 m0 0 h10 m66 0 h10 m0 0 h10 m24 0 h10 m0 0 h10 m88 0 h10 m0 0 h10 m24 0 h10 m0 0 h10 m70 0 h10 m0 0 h10 m28 0 h10 m3 0 h-3"/>
   <polygon points="621 17 629 13 629 21"/>
   <polygon points="621 17 613 13 613 21"/>
</svg>
