<?xml version="1.0" encoding="UTF-8"?>
<svg xmlns="http://www.w3.org/2000/svg" width="885" height="37">
   <defs>
      <style type="text/css">
    @namespace "http://www.w3.org/2000/svg";
    .line                 {fill: none; stroke: #242424; stroke-width: 1;}
    .bold-line            {stroke: #0A0A0A; shape-rendering: crispEdges; stroke-width: 2;}
    .thin-line            {stroke: #0F0F0F; shape-rendering: crispEdges}
    .filled               {fill: #242424; stroke: none;}
    text.terminal         {font-family: Verdana, Sans-serif;
                            font-size: 12px;
                            fill: #0A0A0A;
                            font-weight: bold;
                          }
    text.nonterminal      {font-family: Verdana, Sans-serif;
                            font-size: 12px;
                            fill: #0D0D0D;
                            font-weight: normal;
                          }
    text.regexp           {font-family: Verdana, Sans-serif;
                            font-size: 12px;
                            fill: #0F0F0F;
                            font-weight: normal;
                          }
    rect, circle, polygon {fill: #242424; stroke: #242424;}
    rect.terminal         {fill: #F2F2F2; stroke: #242424; stroke-width: 1;}
    rect.nonterminal      {fill: #F8F8F8; stroke: #242424; stroke-width: 1;}
    rect.text             {fill: none; stroke: none;}
    polygon.regexp        {fill: #FBFBFB; stroke: #242424; stroke-width: 1;}
  </style>
   </defs>
   <polygon points="9 17 1 13 1 21"/>
   <polygon points="17 17 9 13 9 21"/>
   <rect x="31" y="3" width="28" height="32" rx="10"/>
   <rect x="29"
          y="1"
          width="28"
          height="32"
          class="terminal"
          rx="10"/>
   <text class="terminal" x="39" y="21">{</text>
   <rect x="79" y="3" width="62" height="32" rx="10"/>
   <rect x="77"
          y="1"
          width="62"
          height="32"
          class="terminal"
          rx="10"/>
   <text class="terminal" x="87" y="21">"kind"</text>
   <rect x="161" y="3" width="24" height="32" rx="10"/>
   <rect x="159"
          y="1"
          width="24"
          height="32"
          class="terminal"
          rx="10"/>
   <text class="terminal" x="169" y="21">:</text>
   <rect x="205" y="3" width="54" height="32" rx="10"/>
   <rect x="203"
          y="1"
          width="54"
          height="32"
          class="terminal"
          rx="10"/>
   <text class="terminal" x="213" y="21">"Str"</text>
   <rect x="279" y="3" width="24" height="32" rx="10"/>
   <rect x="277"
          y="1"
          width="24"
          height="32"
          class="terminal"
          rx="10"/>
   <text class="terminal" x="287" y="21">,</text>
   <rect x="323" y="3" width="70" height="32" rx="10"/>
   <rect x="321"
          y="1"
          width="70"
          height="32"
          class="terminal"
          rx="10"/>
   <text class="terminal" x="331" y="21">"value"</text>
   <rect x="413" y="3" width="24" height="32" rx="10"/>
   <rect x="411"
          y="1"
          width="24"
          height="32"
          class="terminal"
          rx="10"/>
   <text class="terminal" x="421" y="21">:</text>
   <a xmlns:xlink="http://www.w3.org/1999/xlink"
       xlink:href="#STRING"
       xlink:title="STRING">
      <rect x="457" y="3" width="66" height="32"/>
      <rect x="455" y="1" width="66" height="32" class="nonterminal"/>
      <text class="nonterminal" x="465" y="21">STRING</text>
   </a>
   <rect x="543" y="3" width="24" height="32" rx="10"/>
   <rect x="541"
          y="1"
          width="24"
          height="32"
          class="terminal"
          rx="10"/>
   <text class="terminal" x="551" y="21">,</text>
   <rect x="587" y="3" width="88" height="32" rx="10"/>
   <rect x="585"
          y="1"
          width="88"
          height="32"
          class="terminal"
          rx="10"/>
   <text class="terminal" x="595" y="21">"location"</text>
   <rect x="695" y="3" width="24" height="32" rx="10"/>
   <rect x="693"
          y="1"
          width="24"
          height="32"
          class="terminal"
          rx="10"/>
   <text class="terminal" x="703" y="21">:</text>
   <a xmlns:xlink="http://www.w3.org/1999/xlink"
       xlink:href="#location"
       xlink:title="location">
      <rect x="739" y="3" width="70" height="32"/>
      <rect x="737" y="1" width="70" height="32" class="nonterminal"/>
      <text class="nonterminal" x="747" y="21">location</text>
   </a>
   <rect x="829" y="3" width="28" height="32" rx="10"/>
   <rect x="827"
          y="1"
          width="28"
          height="32"
          class="terminal"
          rx="10"/>
   <text class="terminal" x="837" y="21">}</text>
   <path class="line"
          d="m17 17 h2 m0 0 h10 m28 0 h10 m0 0 h10 m62 0 h10 m0 0 h10 m24 0 h10 m0 0 h10 m54 0 h10 m0 0 h10 m24 0 h10 m0 0 h10 m70 0 h10 m0 0 h10 m24 0 h10 m0 0 h10 m66 0 h10 m0 0 h10 m24 0 h10 m0 0 h10 m88 0 h10 m0 0 h10 m24 0 h10 m0 0 h10 m70 0 h10 m0 0 h10 m28 0 h10 m3 0 h-3"/>
   <polygon points="875 17 883 13 883 21"/>
   <polygon points="875 17 867 13 867 21"/>
</svg>
