<?xml version="1.0" encoding="UTF-8"?>
<svg xmlns="http://www.w3.org/2000/svg" width="169" height="565">
   <defs>
      <style type="text/css">
    @namespace "http://www.w3.org/2000/svg";
    .line                 {fill: none; stroke: #242424; stroke-width: 1;}
    .bold-line            {stroke: #0A0A0A; shape-rendering: crispEdges; stroke-width: 2;}
    .thin-line            {stroke: #0F0F0F; shape-rendering: crispEdges}
    .filled               {fill: #242424; stroke: none;}
    text.terminal         {font-family: Verdana, Sans-serif;
                            font-size: 12px;
                            fill: #0A0A0A;
                            font-weight: bold;
                          }
    text.nonterminal      {font-family: Verdana, Sans-serif;
                            font-size: 12px;
                            fill: #0D0D0D;
                            font-weight: normal;
                          }
    text.regexp           {font-family: Verdana, Sans-serif;
                            font-size: 12px;
                            fill: #0F0F0F;
                            font-weight: normal;
                          }
    rect, circle, polygon {fill: #242424; stroke: #242424;}
    rect.terminal         {fill: #F2F2F2; stroke: #242424; stroke-width: 1;}
    rect.nonterminal      {fill: #F8F8F8; stroke: #242424; stroke-width: 1;}
    rect.text             {fill: none; stroke: none;}
    polygon.regexp        {fill: #FBFBFB; stroke: #242424; stroke-width: 1;}
  </style>
   </defs>
   <polygon points="9 17 1 13 1 21"/>
   <polygon points="17 17 9 13 9 21"/>
   <a xmlns:xlink="http://www.w3.org/1999/xlink"
       xlink:href="#int"
       xlink:title="int">
      <rect x="51" y="3" width="36" height="32"/>
      <rect x="49" y="1" width="36" height="32" class="nonterminal"/>
      <text class="nonterminal" x="59" y="21">int</text>
   </a>
   <a xmlns:xlink="http://www.w3.org/1999/xlink"
       xlink:href="#str"
       xlink:title="str">
      <rect x="51" y="47" width="36" height="32"/>
      <rect x="49" y="45" width="36" height="32" class="nonterminal"/>
      <text class="nonterminal" x="59" y="65">str</text>
   </a>
   <a xmlns:xlink="http://www.w3.org/1999/xlink"
       xlink:href="#call"
       xlink:title="call">
      <rect x="51" y="91" width="40" height="32"/>
      <rect x="49" y="89" width="40" height="32" class="nonterminal"/>
      <text class="nonterminal" x="59" y="109">call</text>
   </a>
   <a xmlns:xlink="http://www.w3.org/1999/xlink"
       xlink:href="#binary"
       xlink:title="binary">
      <rect x="51" y="135" width="60" height="32"/>
      <rect x="49" y="133" width="60" height="32" class="nonterminal"/>
      <text class="nonterminal" x="59" y="153">binary</text>
   </a>
   <a xmlns:xlink="http://www.w3.org/1999/xlink"
       xlink:href="#function"
       xlink:title="function">
      <rect x="51" y="179" width="70" height="32"/>
      <rect x="49" y="177" width="70" height="32" class="nonterminal"/>
      <text class="nonterminal" x="59" y="197">function</text>
   </a>
   <a xmlns:xlink="http://www.w3.org/1999/xlink"
       xlink:href="#let"
       xlink:title="let">
      <rect x="51" y="223" width="36" height="32"/>
      <rect x="49" y="221" width="36" height="32" class="nonterminal"/>
      <text class="nonterminal" x="59" y="241">let</text>
   </a>
   <a xmlns:xlink="http://www.w3.org/1999/xlink"
       xlink:href="#if"
       xlink:title="if">
      <rect x="51" y="267" width="28" height="32"/>
      <rect x="49" y="265" width="28" height="32" class="nonterminal"/>
      <text class="nonterminal" x="59" y="285">if</text>
   </a>
   <a xmlns:xlink="http://www.w3.org/1999/xlink"
       xlink:href="#print"
       xlink:title="print">
      <rect x="51" y="311" width="48" height="32"/>
      <rect x="49" y="309" width="48" height="32" class="nonterminal"/>
      <text class="nonterminal" x="59" y="329">print</text>
   </a>
   <a xmlns:xlink="http://www.w3.org/1999/xlink"
       xlink:href="#first"
       xlink:title="first">
      <rect x="51" y="355" width="44" height="32"/>
      <rect x="49" y="353" width="44" height="32" class="nonterminal"/>
      <text class="nonterminal" x="59" y="373">first</text>
   </a>
   <a xmlns:xlink="http://www.w3.org/1999/xlink"
       xlink:href="#second"
       xlink:title="second">
      <rect x="51" y="399" width="64" height="32"/>
      <rect x="49" y="397" width="64" height="32" class="nonterminal"/>
      <text class="nonterminal" x="59" y="417">second</text>
   </a>
   <a xmlns:xlink="http://www.w3.org/1999/xlink"
       xlink:href="#bool"
       xlink:title="bool">
      <rect x="51" y="443" width="46" height="32"/>
      <rect x="49" y="441" width="46" height="32" class="nonterminal"/>
      <text class="nonterminal" x="59" y="461">bool</text>
   </a>
   <a xmlns:xlink="http://www.w3.org/1999/xlink"
       xlink:href="#tuple"
       xlink:title="tuple">
      <rect x="51" y="487" width="52" height="32"/>
      <rect x="49" y="485" width="52" height="32" class="nonterminal"/>
      <text class="nonterminal" x="59" y="505">tuple</text>
   </a>
   <a xmlns:xlink="http://www.w3.org/1999/xlink"
       xlink:href="#var"
       xlink:title="var">
      <rect x="51" y="531" width="40" height="32"/>
      <rect x="49" y="529" width="40" height="32" class="nonterminal"/>
      <text class="nonterminal" x="59" y="549">var</text>
   </a>
   <path class="line"
          d="m17 17 h2 m20 0 h10 m36 0 h10 m0 0 h34 m-110 0 h20 m90 0 h20 m-130 0 q10 0 10 10 m110 0 q0 -10 10 -10 m-120 10 v24 m110 0 v-24 m-110 24 q0 10 10 10 m90 0 q10 0 10 -10 m-100 10 h10 m36 0 h10 m0 0 h34 m-100 -10 v20 m110 0 v-20 m-110 20 v24 m110 0 v-24 m-110 24 q0 10 10 10 m90 0 q10 0 10 -10 m-100 10 h10 m40 0 h10 m0 0 h30 m-100 -10 v20 m110 0 v-20 m-110 20 v24 m110 0 v-24 m-110 24 q0 10 10 10 m90 0 q10 0 10 -10 m-100 10 h10 m60 0 h10 m0 0 h10 m-100 -10 v20 m110 0 v-20 m-110 20 v24 m110 0 v-24 m-110 24 q0 10 10 10 m90 0 q10 0 10 -10 m-100 10 h10 m70 0 h10 m-100 -10 v20 m110 0 v-20 m-110 20 v24 m110 0 v-24 m-110 24 q0 10 10 10 m90 0 q10 0 10 -10 m-100 10 h10 m36 0 h10 m0 0 h34 m-100 -10 v20 m110 0 v-20 m-110 20 v24 m110 0 v-24 m-110 24 q0 10 10 10 m90 0 q10 0 10 -10 m-100 10 h10 m28 0 h10 m0 0 h42 m-100 -10 v20 m110 0 v-20 m-110 20 v24 m110 0 v-24 m-110 24 q0 10 10 10 m90 0 q10 0 10 -10 m-100 10 h10 m48 0 h10 m0 0 h22 m-100 -10 v20 m110 0 v-20 m-110 20 v24 m110 0 v-24 m-110 24 q0 10 10 10 m90 0 q10 0 10 -10 m-100 10 h10 m44 0 h10 m0 0 h26 m-100 -10 v20 m110 0 v-20 m-110 20 v24 m110 0 v-24 m-110 24 q0 10 10 10 m90 0 q10 0 10 -10 m-100 10 h10 m64 0 h10 m0 0 h6 m-100 -10 v20 m110 0 v-20 m-110 20 v24 m110 0 v-24 m-110 24 q0 10 10 10 m90 0 q10 0 10 -10 m-100 10 h10 m46 0 h10 m0 0 h24 m-100 -10 v20 m110 0 v-20 m-110 20 v24 m110 0 v-24 m-110 24 q0 10 10 10 m90 0 q10 0 10 -10 m-100 10 h10 m52 0 h10 m0 0 h18 m-100 -10 v20 m110 0 v-20 m-110 20 v24 m110 0 v-24 m-110 24 q0 10 10 10 m90 0 q10 0 10 -10 m-100 10 h10 m40 0 h10 m0 0 h30 m23 -528 h-3"/>
   <polygon points="159 17 167 13 167 21"/>
   <polygon points="159 17 151 13 151 21"/>
</svg>
