<?xml version="1.0" encoding="UTF-8"?>
<svg xmlns="http://www.w3.org/2000/svg" width="991" height="103">
   <defs>
      <style type="text/css">
    @namespace "http://www.w3.org/2000/svg";
    .line                 {fill: none; stroke: #242424; stroke-width: 1;}
    .bold-line            {stroke: #0A0A0A; shape-rendering: crispEdges; stroke-width: 2;}
    .thin-line            {stroke: #0F0F0F; shape-rendering: crispEdges}
    .filled               {fill: #242424; stroke: none;}
    text.terminal         {font-family: Verdana, Sans-serif;
                            font-size: 12px;
                            fill: #0A0A0A;
                            font-weight: bold;
                          }
    text.nonterminal      {font-family: Verdana, Sans-serif;
                            font-size: 12px;
                            fill: #0D0D0D;
                            font-weight: normal;
                          }
    text.regexp           {font-family: Verdana, Sans-serif;
                            font-size: 12px;
                            fill: #0F0F0F;
                            font-weight: normal;
                          }
    rect, circle, polygon {fill: #242424; stroke: #242424;}
    rect.terminal         {fill: #F2F2F2; stroke: #242424; stroke-width: 1;}
    rect.nonterminal      {fill: #F8F8F8; stroke: #242424; stroke-width: 1;}
    rect.text             {fill: none; stroke: none;}
    polygon.regexp        {fill: #FBFBFB; stroke: #242424; stroke-width: 1;}
  </style>
   </defs>
   <polygon points="9 17 1 13 1 21"/>
   <polygon points="17 17 9 13 9 21"/>
   <rect x="31" y="3" width="28" height="32" rx="10"/>
   <rect x="29"
          y="1"
          width="28"
          height="32"
          class="terminal"
          rx="10"/>
   <text class="terminal" x="39" y="21">{</text>
   <rect x="79" y="3" width="62" height="32" rx="10"/>
   <rect x="77"
          y="1"
          width="62"
          height="32"
          class="terminal"
          rx="10"/>
   <text class="terminal" x="87" y="21">"kind"</text>
   <rect x="161" y="3" width="24" height="32" rx="10"/>
   <rect x="159"
          y="1"
          width="24"
          height="32"
          class="terminal"
          rx="10"/>
   <text class="terminal" x="169" y="21">:</text>
   <rect x="205" y="3" width="70" height="32" rx="10"/>
   <rect x="203"
          y="1"
          width="70"
          height="32"
          class="terminal"
          rx="10"/>
   <text class="terminal" x="213" y="21">"Tuple"</text>
   <rect x="295" y="3" width="24" height="32" rx="10"/>
   <rect x="293"
          y="1"
          width="24"
          height="32"
          class="terminal"
          rx="10"/>
   <text class="terminal" x="303" y="21">,</text>
   <rect x="339" y="3" width="62" height="32" rx="10"/>
   <rect x="337"
          y="1"
          width="62"
          height="32"
          class="terminal"
          rx="10"/>
   <text class="terminal" x="347" y="21">"first"</text>
   <rect x="421" y="3" width="24" height="32" rx="10"/>
   <rect x="419"
          y="1"
          width="24"
          height="32"
          class="terminal"
          rx="10"/>
   <text class="terminal" x="429" y="21">:</text>
   <a xmlns:xlink="http://www.w3.org/1999/xlink"
       xlink:href="#term"
       xlink:title="term">
      <rect x="465" y="3" width="50" height="32"/>
      <rect x="463" y="1" width="50" height="32" class="nonterminal"/>
      <text class="nonterminal" x="473" y="21">term</text>
   </a>
   <rect x="535" y="3" width="24" height="32" rx="10"/>
   <rect x="533"
          y="1"
          width="24"
          height="32"
          class="terminal"
          rx="10"/>
   <text class="terminal" x="543" y="21">,</text>
   <rect x="579" y="3" width="80" height="32" rx="10"/>
   <rect x="577"
          y="1"
          width="80"
          height="32"
          class="terminal"
          rx="10"/>
   <text class="terminal" x="587" y="21">"second"</text>
   <rect x="679" y="3" width="24" height="32" rx="10"/>
   <rect x="677"
          y="1"
          width="24"
          height="32"
          class="terminal"
          rx="10"/>
   <text class="terminal" x="687" y="21">:</text>
   <a xmlns:xlink="http://www.w3.org/1999/xlink"
       xlink:href="#term"
       xlink:title="term">
      <rect x="723" y="3" width="50" height="32"/>
      <rect x="721" y="1" width="50" height="32" class="nonterminal"/>
      <text class="nonterminal" x="731" y="21">term</text>
   </a>
   <rect x="793" y="3" width="24" height="32" rx="10"/>
   <rect x="791"
          y="1"
          width="24"
          height="32"
          class="terminal"
          rx="10"/>
   <text class="terminal" x="801" y="21">,</text>
   <rect x="837" y="3" width="88" height="32" rx="10"/>
   <rect x="835"
          y="1"
          width="88"
          height="32"
          class="terminal"
          rx="10"/>
   <text class="terminal" x="845" y="21">"location"</text>
   <rect x="945" y="3" width="24" height="32" rx="10"/>
   <rect x="943"
          y="1"
          width="24"
          height="32"
          class="terminal"
          rx="10"/>
   <text class="terminal" x="953" y="21">:</text>
   <a xmlns:xlink="http://www.w3.org/1999/xlink"
       xlink:href="#location"
       xlink:title="location">
      <rect x="845" y="69" width="70" height="32"/>
      <rect x="843" y="67" width="70" height="32" class="nonterminal"/>
      <text class="nonterminal" x="853" y="87">location</text>
   </a>
   <rect x="935" y="69" width="28" height="32" rx="10"/>
   <rect x="933"
          y="67"
          width="28"
          height="32"
          class="terminal"
          rx="10"/>
   <text class="terminal" x="943" y="87">}</text>
   <path class="line"
          d="m17 17 h2 m0 0 h10 m28 0 h10 m0 0 h10 m62 0 h10 m0 0 h10 m24 0 h10 m0 0 h10 m70 0 h10 m0 0 h10 m24 0 h10 m0 0 h10 m62 0 h10 m0 0 h10 m24 0 h10 m0 0 h10 m50 0 h10 m0 0 h10 m24 0 h10 m0 0 h10 m80 0 h10 m0 0 h10 m24 0 h10 m0 0 h10 m50 0 h10 m0 0 h10 m24 0 h10 m0 0 h10 m88 0 h10 m0 0 h10 m24 0 h10 m2 0 l2 0 m2 0 l2 0 m2 0 l2 0 m-168 66 l2 0 m2 0 l2 0 m2 0 l2 0 m2 0 h10 m70 0 h10 m0 0 h10 m28 0 h10 m3 0 h-3"/>
   <polygon points="981 83 989 79 989 87"/>
   <polygon points="981 83 973 79 973 87"/>
</svg>
