<?xml version="1.0" encoding="UTF-8"?>
<svg xmlns="http://www.w3.org/2000/svg" width="279" height="97">
   <defs>
      <style type="text/css">
    @namespace "http://www.w3.org/2000/svg";
    .line                 {fill: none; stroke: #242424; stroke-width: 1;}
    .bold-line            {stroke: #0A0A0A; shape-rendering: crispEdges; stroke-width: 2;}
    .thin-line            {stroke: #0F0F0F; shape-rendering: crispEdges}
    .filled               {fill: #242424; stroke: none;}
    text.terminal         {font-family: Verdana, Sans-serif;
                            font-size: 12px;
                            fill: #0A0A0A;
                            font-weight: bold;
                          }
    text.nonterminal      {font-family: Verdana, Sans-serif;
                            font-size: 12px;
                            fill: #0D0D0D;
                            font-weight: normal;
                          }
    text.regexp           {font-family: Verdana, Sans-serif;
                            font-size: 12px;
                            fill: #0F0F0F;
                            font-weight: normal;
                          }
    rect, circle, polygon {fill: #242424; stroke: #242424;}
    rect.terminal         {fill: #F2F2F2; stroke: #242424; stroke-width: 1;}
    rect.nonterminal      {fill: #F8F8F8; stroke: #242424; stroke-width: 1;}
    rect.text             {fill: none; stroke: none;}
    polygon.regexp        {fill: #FBFBFB; stroke: #242424; stroke-width: 1;}
  </style>
   </defs>
   <polygon points="9 61 1 57 1 65"/>
   <polygon points="17 61 9 57 9 65"/>
   <rect x="31" y="47" width="26" height="32" rx="10"/>
   <rect x="29"
          y="45"
          width="26"
          height="32"
          class="terminal"
          rx="10"/>
   <text class="terminal" x="39" y="65">(</text>
   <a xmlns:xlink="http://www.w3.org/1999/xlink"
       xlink:href="#expr"
       xlink:title="expr">
      <rect x="117" y="47" width="48" height="32"/>
      <rect x="115" y="45" width="48" height="32" class="nonterminal"/>
      <text class="nonterminal" x="125" y="65">expr</text>
   </a>
   <rect x="117" y="3" width="24" height="32" rx="10"/>
   <rect x="115"
          y="1"
          width="24"
          height="32"
          class="terminal"
          rx="10"/>
   <text class="terminal" x="125" y="21">,</text>
   <rect x="225" y="47" width="26" height="32" rx="10"/>
   <rect x="223"
          y="45"
          width="26"
          height="32"
          class="terminal"
          rx="10"/>
   <text class="terminal" x="233" y="65">)</text>
   <path class="line"
          d="m17 61 h2 m0 0 h10 m26 0 h10 m40 0 h10 m48 0 h10 m-88 0 l20 0 m-1 0 q-9 0 -9 -10 l0 -24 q0 -10 10 -10 m68 44 l20 0 m-20 0 q10 0 10 -10 l0 -24 q0 -10 -10 -10 m-68 0 h10 m24 0 h10 m0 0 h24 m-108 44 h20 m108 0 h20 m-148 0 q10 0 10 10 m128 0 q0 -10 10 -10 m-138 10 v14 m128 0 v-14 m-128 14 q0 10 10 10 m108 0 q10 0 10 -10 m-118 10 h10 m0 0 h98 m20 -34 h10 m26 0 h10 m3 0 h-3"/>
   <polygon points="269 61 277 57 277 65"/>
   <polygon points="269 61 261 57 261 65"/>
</svg>
