<?xml version="1.0" encoding="UTF-8"?>
<svg xmlns="http://www.w3.org/2000/svg" width="189" height="125">
   <defs>
      <style type="text/css">
    @namespace "http://www.w3.org/2000/svg";
    .line                 {fill: none; stroke: #242424; stroke-width: 1;}
    .bold-line            {stroke: #0A0A0A; shape-rendering: crispEdges; stroke-width: 2;}
    .thin-line            {stroke: #0F0F0F; shape-rendering: crispEdges}
    .filled               {fill: #242424; stroke: none;}
    text.terminal         {font-family: Verdana, Sans-serif;
                            font-size: 12px;
                            fill: #0A0A0A;
                            font-weight: bold;
                          }
    text.nonterminal      {font-family: Verdana, Sans-serif;
                            font-size: 12px;
                            fill: #0D0D0D;
                            font-weight: normal;
                          }
    text.regexp           {font-family: Verdana, Sans-serif;
                            font-size: 12px;
                            fill: #0F0F0F;
                            font-weight: normal;
                          }
    rect, circle, polygon {fill: #242424; stroke: #242424;}
    rect.terminal         {fill: #F2F2F2; stroke: #242424; stroke-width: 1;}
    rect.nonterminal      {fill: #F8F8F8; stroke: #242424; stroke-width: 1;}
    rect.text             {fill: none; stroke: none;}
    polygon.regexp        {fill: #FBFBFB; stroke: #242424; stroke-width: 1;}
  </style>
   </defs>
   <polygon points="9 105 1 101 1 109"/>
   <polygon points="17 105 9 101 9 109"/>
   <a xmlns:xlink="http://www.w3.org/1999/xlink"
       xlink:href="#comp_expr"
       xlink:title="comp_expr">
      <rect x="51" y="91" width="90" height="32"/>
      <rect x="49" y="89" width="90" height="32" class="nonterminal"/>
      <text class="nonterminal" x="59" y="109">comp_expr</text>
   </a>
   <rect x="51" y="47" width="40" height="32" rx="10"/>
   <rect x="49"
          y="45"
          width="40"
          height="32"
          class="terminal"
          rx="10"/>
   <text class="terminal" x="59" y="65">==</text>
   <rect x="51" y="3" width="34" height="32" rx="10"/>
   <rect x="49"
          y="1"
          width="34"
          height="32"
          class="terminal"
          rx="10"/>
   <text class="terminal" x="59" y="21">!=</text>
   <path class="line"
          d="m17 105 h2 m20 0 h10 m90 0 h10 m-130 0 l20 0 m-1 0 q-9 0 -9 -10 l0 -24 q0 -10 10 -10 m110 44 l20 0 m-20 0 q10 0 10 -10 l0 -24 q0 -10 -10 -10 m-110 0 h10 m40 0 h10 m0 0 h50 m-120 10 l0 -44 q0 -10 10 -10 m120 54 l0 -44 q0 -10 -10 -10 m-110 0 h10 m34 0 h10 m0 0 h56 m23 88 h-3"/>
   <polygon points="179 105 187 101 187 109"/>
   <polygon points="179 105 171 101 171 109"/>
</svg>
