<?xml version="1.0" encoding="UTF-8"?>
<svg xmlns="http://www.w3.org/2000/svg" width="179" height="81">
   <defs>
      <style type="text/css">
    @namespace "http://www.w3.org/2000/svg";
    .line                 {fill: none; stroke: #242424; stroke-width: 1;}
    .bold-line            {stroke: #0A0A0A; shape-rendering: crispEdges; stroke-width: 2;}
    .thin-line            {stroke: #0F0F0F; shape-rendering: crispEdges}
    .filled               {fill: #242424; stroke: none;}
    text.terminal         {font-family: Verdana, Sans-serif;
                            font-size: 12px;
                            fill: #0A0A0A;
                            font-weight: bold;
                          }
    text.nonterminal      {font-family: Verdana, Sans-serif;
                            font-size: 12px;
                            fill: #0D0D0D;
                            font-weight: normal;
                          }
    text.regexp           {font-family: Verdana, Sans-serif;
                            font-size: 12px;
                            fill: #0F0F0F;
                            font-weight: normal;
                          }
    rect, circle, polygon {fill: #242424; stroke: #242424;}
    rect.terminal         {fill: #F2F2F2; stroke: #242424; stroke-width: 1;}
    rect.nonterminal      {fill: #F8F8F8; stroke: #242424; stroke-width: 1;}
    rect.text             {fill: none; stroke: none;}
    polygon.regexp        {fill: #FBFBFB; stroke: #242424; stroke-width: 1;}
  </style>
   </defs>
   <polygon points="9 61 1 57 1 65"/>
   <polygon points="17 61 9 57 9 65"/>
   <a xmlns:xlink="http://www.w3.org/1999/xlink"
       xlink:href="#and_expr"
       xlink:title="and_expr">
      <rect x="51" y="47" width="80" height="32"/>
      <rect x="49" y="45" width="80" height="32" class="nonterminal"/>
      <text class="nonterminal" x="59" y="65">and_expr</text>
   </a>
   <rect x="51" y="3" width="32" height="32" rx="10"/>
   <rect x="49"
          y="1"
          width="32"
          height="32"
          class="terminal"
          rx="10"/>
   <text class="terminal" x="59" y="21">||</text>
   <path class="line"
          d="m17 61 h2 m20 0 h10 m80 0 h10 m-120 0 l20 0 m-1 0 q-9 0 -9 -10 l0 -24 q0 -10 10 -10 m100 44 l20 0 m-20 0 q10 0 10 -10 l0 -24 q0 -10 -10 -10 m-100 0 h10 m32 0 h10 m0 0 h48 m23 44 h-3"/>
   <polygon points="169 61 177 57 177 65"/>
   <polygon points="169 61 161 57 161 65"/>
</svg>
