<?xml version="1.0" encoding="UTF-8"?>
<svg xmlns="http://www.w3.org/2000/svg" width="183" height="169">
   <defs>
      <style type="text/css">
    @namespace "http://www.w3.org/2000/svg";
    .line                 {fill: none; stroke: #242424; stroke-width: 1;}
    .bold-line            {stroke: #0A0A0A; shape-rendering: crispEdges; stroke-width: 2;}
    .thin-line            {stroke: #0F0F0F; shape-rendering: crispEdges}
    .filled               {fill: #242424; stroke: none;}
    text.terminal         {font-family: Verdana, Sans-serif;
                            font-size: 12px;
                            fill: #0A0A0A;
                            font-weight: bold;
                          }
    text.nonterminal      {font-family: Verdana, Sans-serif;
                            font-size: 12px;
                            fill: #0D0D0D;
                            font-weight: normal;
                          }
    text.regexp           {font-family: Verdana, Sans-serif;
                            font-size: 12px;
                            fill: #0F0F0F;
                            font-weight: normal;
                          }
    rect, circle, polygon {fill: #242424; stroke: #242424;}
    rect.terminal         {fill: #F2F2F2; stroke: #242424; stroke-width: 1;}
    rect.nonterminal      {fill: #F8F8F8; stroke: #242424; stroke-width: 1;}
    rect.text             {fill: none; stroke: none;}
    polygon.regexp        {fill: #FBFBFB; stroke: #242424; stroke-width: 1;}
  </style>
   </defs>
   <polygon points="9 149 1 145 1 153"/>
   <polygon points="17 149 9 145 9 153"/>
   <a xmlns:xlink="http://www.w3.org/1999/xlink"
       xlink:href="#prim_expr"
       xlink:title="prim_expr">
      <rect x="51" y="135" width="84" height="32"/>
      <rect x="49" y="133" width="84" height="32" class="nonterminal"/>
      <text class="nonterminal" x="59" y="153">prim_expr</text>
   </a>
   <rect x="51" y="91" width="28" height="32" rx="10"/>
   <rect x="49"
          y="89"
          width="28"
          height="32"
          class="terminal"
          rx="10"/>
   <text class="terminal" x="59" y="109">*</text>
   <rect x="51" y="47" width="28" height="32" rx="10"/>
   <rect x="49"
          y="45"
          width="28"
          height="32"
          class="terminal"
          rx="10"/>
   <text class="terminal" x="59" y="65">/</text>
   <rect x="51" y="3" width="34" height="32" rx="10"/>
   <rect x="49"
          y="1"
          width="34"
          height="32"
          class="terminal"
          rx="10"/>
   <text class="terminal" x="59" y="21">%</text>
   <path class="line"
          d="m17 149 h2 m20 0 h10 m84 0 h10 m-124 0 l20 0 m-1 0 q-9 0 -9 -10 l0 -24 q0 -10 10 -10 m104 44 l20 0 m-20 0 q10 0 10 -10 l0 -24 q0 -10 -10 -10 m-104 0 h10 m28 0 h10 m0 0 h56 m-114 10 l0 -44 q0 -10 10 -10 m114 54 l0 -44 q0 -10 -10 -10 m-104 0 h10 m28 0 h10 m0 0 h56 m-114 10 l0 -44 q0 -10 10 -10 m114 54 l0 -44 q0 -10 -10 -10 m-104 0 h10 m34 0 h10 m0 0 h50 m23 132 h-3"/>
   <polygon points="173 149 181 145 181 153"/>
   <polygon points="173 149 165 145 165 153"/>
</svg>
