<?xml version="1.0" encoding="UTF-8"?>
<svg xmlns="http://www.w3.org/2000/svg" width="551" height="639">
   <defs>
      <style type="text/css">
    @namespace "http://www.w3.org/2000/svg";
    .line                 {fill: none; stroke: #242424; stroke-width: 1;}
    .bold-line            {stroke: #0A0A0A; shape-rendering: crispEdges; stroke-width: 2;}
    .thin-line            {stroke: #0F0F0F; shape-rendering: crispEdges}
    .filled               {fill: #242424; stroke: none;}
    text.terminal         {font-family: Verdana, Sans-serif;
                            font-size: 12px;
                            fill: #0A0A0A;
                            font-weight: bold;
                          }
    text.nonterminal      {font-family: Verdana, Sans-serif;
                            font-size: 12px;
                            fill: #0D0D0D;
                            font-weight: normal;
                          }
    text.regexp           {font-family: Verdana, Sans-serif;
                            font-size: 12px;
                            fill: #0F0F0F;
                            font-weight: normal;
                          }
    rect, circle, polygon {fill: #242424; stroke: #242424;}
    rect.terminal         {fill: #F2F2F2; stroke: #242424; stroke-width: 1;}
    rect.nonterminal      {fill: #F8F8F8; stroke: #242424; stroke-width: 1;}
    rect.text             {fill: none; stroke: none;}
    polygon.regexp        {fill: #FBFBFB; stroke: #242424; stroke-width: 1;}
  </style>
   </defs>
   <polygon points="9 17 1 13 1 21"/>
   <polygon points="17 17 9 13 9 21"/>
   <a xmlns:xlink="http://www.w3.org/1999/xlink"
       xlink:href="#bool"
       xlink:title="bool">
      <rect x="51" y="3" width="46" height="32"/>
      <rect x="49" y="1" width="46" height="32" class="nonterminal"/>
      <text class="nonterminal" x="59" y="21">bool</text>
   </a>
   <a xmlns:xlink="http://www.w3.org/1999/xlink"
       xlink:href="#INT"
       xlink:title="INT">
      <rect x="51" y="47" width="40" height="32"/>
      <rect x="49" y="45" width="40" height="32" class="nonterminal"/>
      <text class="nonterminal" x="59" y="65">INT</text>
   </a>
   <a xmlns:xlink="http://www.w3.org/1999/xlink"
       xlink:href="#STR"
       xlink:title="STR">
      <rect x="51" y="91" width="42" height="32"/>
      <rect x="49" y="89" width="42" height="32" class="nonterminal"/>
      <text class="nonterminal" x="59" y="109">STR</text>
   </a>
   <a xmlns:xlink="http://www.w3.org/1999/xlink"
       xlink:href="#tuple"
       xlink:title="tuple">
      <rect x="51" y="135" width="52" height="32"/>
      <rect x="49" y="133" width="52" height="32" class="nonterminal"/>
      <text class="nonterminal" x="59" y="153">tuple</text>
   </a>
   <rect x="71" y="211" width="28" height="32" rx="10"/>
   <rect x="69"
          y="209"
          width="28"
          height="32"
          class="terminal"
          rx="10"/>
   <text class="terminal" x="79" y="229">if</text>
   <rect x="119" y="211" width="26" height="32" rx="10"/>
   <rect x="117"
          y="209"
          width="26"
          height="32"
          class="terminal"
          rx="10"/>
   <text class="terminal" x="127" y="229">(</text>
   <a xmlns:xlink="http://www.w3.org/1999/xlink"
       xlink:href="#expr"
       xlink:title="expr">
      <rect x="165" y="211" width="48" height="32"/>
      <rect x="163" y="209" width="48" height="32" class="nonterminal"/>
      <text class="nonterminal" x="173" y="229">expr</text>
   </a>
   <rect x="233" y="211" width="26" height="32" rx="10"/>
   <rect x="231"
          y="209"
          width="26"
          height="32"
          class="terminal"
          rx="10"/>
   <text class="terminal" x="241" y="229">)</text>
   <a xmlns:xlink="http://www.w3.org/1999/xlink"
       xlink:href="#block"
       xlink:title="block">
      <rect x="279" y="211" width="52" height="32"/>
      <rect x="277" y="209" width="52" height="32" class="nonterminal"/>
      <text class="nonterminal" x="287" y="229">block</text>
   </a>
   <rect x="351" y="211" width="46" height="32" rx="10"/>
   <rect x="349"
          y="209"
          width="46"
          height="32"
          class="terminal"
          rx="10"/>
   <text class="terminal" x="359" y="229">else</text>
   <a xmlns:xlink="http://www.w3.org/1999/xlink"
       xlink:href="#block"
       xlink:title="block">
      <rect x="437" y="179" width="52" height="32"/>
      <rect x="435" y="177" width="52" height="32" class="nonterminal"/>
      <text class="nonterminal" x="445" y="197">block</text>
   </a>
   <rect x="71" y="299" width="34" height="32" rx="10"/>
   <rect x="69"
          y="297"
          width="34"
          height="32"
          class="terminal"
          rx="10"/>
   <text class="terminal" x="79" y="317">fn</text>
   <rect x="125" y="299" width="26" height="32" rx="10"/>
   <rect x="123"
          y="297"
          width="26"
          height="32"
          class="terminal"
          rx="10"/>
   <text class="terminal" x="133" y="317">(</text>
   <a xmlns:xlink="http://www.w3.org/1999/xlink"
       xlink:href="#IDENT"
       xlink:title="IDENT">
      <rect x="211" y="299" width="58" height="32"/>
      <rect x="209" y="297" width="58" height="32" class="nonterminal"/>
      <text class="nonterminal" x="219" y="317">IDENT</text>
   </a>
   <rect x="211" y="255" width="24" height="32" rx="10"/>
   <rect x="209"
          y="253"
          width="24"
          height="32"
          class="terminal"
          rx="10"/>
   <text class="terminal" x="219" y="273">,</text>
   <rect x="329" y="299" width="26" height="32" rx="10"/>
   <rect x="327"
          y="297"
          width="26"
          height="32"
          class="terminal"
          rx="10"/>
   <text class="terminal" x="337" y="317">)</text>
   <rect x="375" y="299" width="40" height="32" rx="10"/>
   <rect x="373"
          y="297"
          width="40"
          height="32"
          class="terminal"
          rx="10"/>
   <text class="terminal" x="383" y="317">=&gt;</text>
   <rect x="71" y="365" width="38" height="32" rx="10"/>
   <rect x="69"
          y="363"
          width="38"
          height="32"
          class="terminal"
          rx="10"/>
   <text class="terminal" x="79" y="383">let</text>
   <a xmlns:xlink="http://www.w3.org/1999/xlink"
       xlink:href="#IDENT"
       xlink:title="IDENT">
      <rect x="129" y="365" width="58" height="32"/>
      <rect x="127" y="363" width="58" height="32" class="nonterminal"/>
      <text class="nonterminal" x="137" y="383">IDENT</text>
   </a>
   <rect x="207" y="365" width="30" height="32" rx="10"/>
   <rect x="205"
          y="363"
          width="30"
          height="32"
          class="terminal"
          rx="10"/>
   <text class="terminal" x="215" y="383">=</text>
   <a xmlns:xlink="http://www.w3.org/1999/xlink"
       xlink:href="#expr"
       xlink:title="expr">
      <rect x="257" y="365" width="48" height="32"/>
      <rect x="255" y="363" width="48" height="32" class="nonterminal"/>
      <text class="nonterminal" x="265" y="383">expr</text>
   </a>
   <rect x="325" y="365" width="24" height="32" rx="10"/>
   <rect x="323"
          y="363"
          width="24"
          height="32"
          class="terminal"
          rx="10"/>
   <text class="terminal" x="333" y="383">;</text>
   <a xmlns:xlink="http://www.w3.org/1999/xlink"
       xlink:href="#expr"
       xlink:title="expr">
      <rect x="455" y="299" width="48" height="32"/>
      <rect x="453" y="297" width="48" height="32" class="nonterminal"/>
      <text class="nonterminal" x="463" y="317">expr</text>
   </a>
   <rect x="71" y="441" width="52" height="32" rx="10"/>
   <rect x="69"
          y="439"
          width="52"
          height="32"
          class="terminal"
          rx="10"/>
   <text class="terminal" x="79" y="459">print</text>
   <rect x="71" y="485" width="48" height="32" rx="10"/>
   <rect x="69"
          y="483"
          width="48"
          height="32"
          class="terminal"
          rx="10"/>
   <text class="terminal" x="79" y="503">first</text>
   <rect x="71" y="529" width="66" height="32" rx="10"/>
   <rect x="69"
          y="527"
          width="66"
          height="32"
          class="terminal"
          rx="10"/>
   <text class="terminal" x="79" y="547">second</text>
   <rect x="177" y="409" width="26" height="32" rx="10"/>
   <rect x="175"
          y="407"
          width="26"
          height="32"
          class="terminal"
          rx="10"/>
   <text class="terminal" x="185" y="427">(</text>
   <a xmlns:xlink="http://www.w3.org/1999/xlink"
       xlink:href="#expr"
       xlink:title="expr">
      <rect x="223" y="409" width="48" height="32"/>
      <rect x="221" y="407" width="48" height="32" class="nonterminal"/>
      <text class="nonterminal" x="231" y="427">expr</text>
   </a>
   <rect x="291" y="409" width="26" height="32" rx="10"/>
   <rect x="289"
          y="407"
          width="26"
          height="32"
          class="terminal"
          rx="10"/>
   <text class="terminal" x="299" y="427">)</text>
   <a xmlns:xlink="http://www.w3.org/1999/xlink"
       xlink:href="#IDENT"
       xlink:title="IDENT">
      <rect x="51" y="573" width="58" height="32"/>
      <rect x="49" y="571" width="58" height="32" class="nonterminal"/>
      <text class="nonterminal" x="59" y="591">IDENT</text>
   </a>
   <a xmlns:xlink="http://www.w3.org/1999/xlink"
       xlink:href="#call"
       xlink:title="call">
      <rect x="149" y="605" width="40" height="32"/>
      <rect x="147" y="603" width="40" height="32" class="nonterminal"/>
      <text class="nonterminal" x="157" y="623">call</text>
   </a>
   <path class="line"
          d="m17 17 h2 m20 0 h10 m46 0 h10 m0 0 h406 m-492 0 h20 m472 0 h20 m-512 0 q10 0 10 10 m492 0 q0 -10 10 -10 m-502 10 v24 m492 0 v-24 m-492 24 q0 10 10 10 m472 0 q10 0 10 -10 m-482 10 h10 m40 0 h10 m0 0 h412 m-482 -10 v20 m492 0 v-20 m-492 20 v24 m492 0 v-24 m-492 24 q0 10 10 10 m472 0 q10 0 10 -10 m-482 10 h10 m42 0 h10 m0 0 h410 m-482 -10 v20 m492 0 v-20 m-492 20 v24 m492 0 v-24 m-492 24 q0 10 10 10 m472 0 q10 0 10 -10 m-482 10 h10 m52 0 h10 m0 0 h400 m-482 -10 v20 m492 0 v-20 m-492 20 v24 m492 0 v-24 m-492 24 q0 10 10 10 m472 0 q10 0 10 -10 m-462 10 h10 m0 0 h336 m-366 0 h20 m346 0 h20 m-386 0 q10 0 10 10 m366 0 q0 -10 10 -10 m-376 10 v12 m366 0 v-12 m-366 12 q0 10 10 10 m346 0 q10 0 10 -10 m-356 10 h10 m28 0 h10 m0 0 h10 m26 0 h10 m0 0 h10 m48 0 h10 m0 0 h10 m26 0 h10 m0 0 h10 m52 0 h10 m0 0 h10 m46 0 h10 m20 -32 h10 m52 0 h10 m0 0 h14 m-482 -10 v20 m492 0 v-20 m-492 20 v100 m492 0 v-100 m-492 100 q0 10 10 10 m472 0 q10 0 10 -10 m-462 10 h10 m34 0 h10 m0 0 h10 m26 0 h10 m40 0 h10 m58 0 h10 m-98 0 l20 0 m-1 0 q-9 0 -9 -10 l0 -24 q0 -10 10 -10 m78 44 l20 0 m-20 0 q10 0 10 -10 l0 -24 q0 -10 -10 -10 m-78 0 h10 m24 0 h10 m0 0 h34 m-118 44 h20 m118 0 h20 m-158 0 q10 0 10 10 m138 0 q0 -10 10 -10 m-148 10 v14 m138 0 v-14 m-138 14 q0 10 10 10 m118 0 q10 0 10 -10 m-128 10 h10 m0 0 h108 m20 -34 h10 m26 0 h10 m0 0 h10 m40 0 h10 m-384 0 h20 m364 0 h20 m-404 0 q10 0 10 10 m384 0 q0 -10 10 -10 m-394 10 v46 m384 0 v-46 m-384 46 q0 10 10 10 m364 0 q10 0 10 -10 m-374 10 h10 m38 0 h10 m0 0 h10 m58 0 h10 m0 0 h10 m30 0 h10 m0 0 h10 m48 0 h10 m0 0 h10 m24 0 h10 m0 0 h66 m20 -66 h10 m48 0 h10 m-482 -10 v20 m492 0 v-20 m-492 20 v90 m492 0 v-90 m-492 90 q0 10 10 10 m472 0 q10 0 10 -10 m-462 10 h10 m0 0 h76 m-106 0 h20 m86 0 h20 m-126 0 q10 0 10 10 m106 0 q0 -10 10 -10 m-116 10 v12 m106 0 v-12 m-106 12 q0 10 10 10 m86 0 q10 0 10 -10 m-96 10 h10 m52 0 h10 m0 0 h14 m-96 -10 v20 m106 0 v-20 m-106 20 v24 m106 0 v-24 m-106 24 q0 10 10 10 m86 0 q10 0 10 -10 m-96 10 h10 m48 0 h10 m0 0 h18 m-96 -10 v20 m106 0 v-20 m-106 20 v24 m106 0 v-24 m-106 24 q0 10 10 10 m86 0 q10 0 10 -10 m-96 10 h10 m66 0 h10 m20 -120 h10 m26 0 h10 m0 0 h10 m48 0 h10 m0 0 h10 m26 0 h10 m0 0 h186 m-482 -10 v20 m492 0 v-20 m-492 20 v144 m492 0 v-144 m-492 144 q0 10 10 10 m472 0 q10 0 10 -10 m-482 10 h10 m58 0 h10 m20 0 h10 m0 0 h50 m-80 0 h20 m60 0 h20 m-100 0 q10 0 10 10 m80 0 q0 -10 10 -10 m-90 10 v12 m80 0 v-12 m-80 12 q0 10 10 10 m60 0 q10 0 10 -10 m-70 10 h10 m40 0 h10 m20 -32 h294 m23 -570 h-3"/>
   <polygon points="541 17 549 13 549 21"/>
   <polygon points="541 17 533 13 533 21"/>
</svg>
