<?xml version="1.0" encoding="UTF-8"?>
<svg xmlns="http://www.w3.org/2000/svg" width="311" height="37">
   <defs>
      <style type="text/css">
    @namespace "http://www.w3.org/2000/svg";
    .line                 {fill: none; stroke: #242424; stroke-width: 1;}
    .bold-line            {stroke: #0A0A0A; shape-rendering: crispEdges; stroke-width: 2;}
    .thin-line            {stroke: #0F0F0F; shape-rendering: crispEdges}
    .filled               {fill: #242424; stroke: none;}
    text.terminal         {font-family: Verdana, Sans-serif;
                            font-size: 12px;
                            fill: #0A0A0A;
                            font-weight: bold;
                          }
    text.nonterminal      {font-family: Verdana, Sans-serif;
                            font-size: 12px;
                            fill: #0D0D0D;
                            font-weight: normal;
                          }
    text.regexp           {font-family: Verdana, Sans-serif;
                            font-size: 12px;
                            fill: #0F0F0F;
                            font-weight: normal;
                          }
    rect, circle, polygon {fill: #242424; stroke: #242424;}
    rect.terminal         {fill: #F2F2F2; stroke: #242424; stroke-width: 1;}
    rect.nonterminal      {fill: #F8F8F8; stroke: #242424; stroke-width: 1;}
    rect.text             {fill: none; stroke: none;}
    polygon.regexp        {fill: #FBFBFB; stroke: #242424; stroke-width: 1;}
  </style>
   </defs>
   <polygon points="9 17 1 13 1 21"/>
   <polygon points="17 17 9 13 9 21"/>
   <rect x="31" y="3" width="26" height="32" rx="10"/>
   <rect x="29"
          y="1"
          width="26"
          height="32"
          class="terminal"
          rx="10"/>
   <text class="terminal" x="39" y="21">(</text>
   <a xmlns:xlink="http://www.w3.org/1999/xlink"
       xlink:href="#expr"
       xlink:title="expr">
      <rect x="77" y="3" width="48" height="32"/>
      <rect x="75" y="1" width="48" height="32" class="nonterminal"/>
      <text class="nonterminal" x="85" y="21">expr</text>
   </a>
   <rect x="145" y="3" width="24" height="32" rx="10"/>
   <rect x="143"
          y="1"
          width="24"
          height="32"
          class="terminal"
          rx="10"/>
   <text class="terminal" x="153" y="21">,</text>
   <a xmlns:xlink="http://www.w3.org/1999/xlink"
       xlink:href="#expr"
       xlink:title="expr">
      <rect x="189" y="3" width="48" height="32"/>
      <rect x="187" y="1" width="48" height="32" class="nonterminal"/>
      <text class="nonterminal" x="197" y="21">expr</text>
   </a>
   <rect x="257" y="3" width="26" height="32" rx="10"/>
   <rect x="255"
          y="1"
          width="26"
          height="32"
          class="terminal"
          rx="10"/>
   <text class="terminal" x="265" y="21">)</text>
   <path class="line"
          d="m17 17 h2 m0 0 h10 m26 0 h10 m0 0 h10 m48 0 h10 m0 0 h10 m24 0 h10 m0 0 h10 m48 0 h10 m0 0 h10 m26 0 h10 m3 0 h-3"/>
   <polygon points="301 17 309 13 309 21"/>
   <polygon points="301 17 293 13 293 21"/>
</svg>
